<?xml version="1.0" standalone="no"?>
<!DOCTYPE svg PUBLIC "-//W3C//DTD SVG 1.1//EN" "http://www.w3.org/Graphics/SVG/1.1/DTD/svg11.dtd" >
<!--
2013-9-30: Created.
-->
<svg>
<metadata>
Created by iconfont
</metadata>
<defs>

<font id="iconfont" horiz-adv-x="1024" >
  <font-face
    font-family="iconfont"
    font-weight="500"
    font-stretch="normal"
    units-per-em="1024"
    ascent="896"
    descent="-128"
  />
    <missing-glyph />
    
    <glyph glyph-name="x" unicode="x" horiz-adv-x="1001"
d="M281 543q-27 -1 -53 -1h-83q-18 0 -36.5 -6t-32.5 -18.5t-23 -32t-9 -45.5v-76h912v41q0 16 -0.5 30t-0.5 18q0 13 -5 29t-17 29.5t-31.5 22.5t-49.5 9h-133v-97h-438v97zM955 310v-52q0 -23 0.5 -52t0.5 -58t-10.5 -47.5t-26 -30t-33 -16t-31.5 -4.5q-14 -1 -29.5 -0.5
t-29.5 0.5h-32l-45 128h-439l-44 -128h-29h-34q-20 0 -45 1q-25 0 -41 9.5t-25.5 23t-13.5 29.5t-4 30v167h911zM163 247q-12 0 -21 -8.5t-9 -21.5t9 -21.5t21 -8.5q13 0 22 8.5t9 21.5t-9 21.5t-22 8.5zM316 123q-8 -26 -14 -48q-5 -19 -10.5 -37t-7.5 -25t-3 -15t1 -14.5
t9.5 -10.5t21.5 -4h37h67h81h80h64h36q23 0 34 12t2 38q-5 13 -9.5 30.5t-9.5 34.5q-5 19 -11 39h-368zM336 498v228q0 11 2.5 23t10 21.5t20.5 15.5t34 6h188q31 0 51.5 -14.5t20.5 -52.5v-227h-327z" />
    

    
    <glyph glyph-name="acceptance" unicode="&#58890;" d="M769.726 232.71c-107.463 0-194.573-87.111-194.573-194.574s87.11-194.573 194.573-194.573 194.573 87.11 194.573 194.573-87.111 194.574-194.573 194.574zM743.831-75.064l-114.673 115.603 54.855 54.43 53.848-54.274 111.572 110.68 60.865-61.369c-55.555-55.009-110.991-110.060-166.467-165.070zM62.734 743.816v-732.856h450.61v52.646h-397.955v170.846h490.183c44.156 36.675 100.911 58.734 162.822 58.734 5.931 0 11.785-0.194 17.601-0.582v1.901h-670.605v170.875h681.073v-170.876h52.684v449.313h-786.412zM796.461 520.303h-681.073v170.857h681.073v-170.857zM172.759 634.743h113.511v-58.614h-113.511v58.614zM456.022 178.047h58.654v-58.615h-58.654v58.615zM172.759 178.047h113.511v-58.615h-113.511v58.615zM685.873 408.972h58.616v-58.624h-58.616v58.624zM569.533 408.972h58.615v-58.624h-58.615v58.624zM456.022 408.972h58.654v-58.624h-58.654v58.624zM172.759 408.972h113.511v-58.624h-113.511v58.624zM685.873 634.743h58.616v-58.614h-58.616v58.614zM569.533 634.743h58.615v-58.614h-58.615v58.614zM456.022 634.743h58.654v-58.614h-58.654v58.614z"  horiz-adv-x="1024" />

    
    <glyph glyph-name="icon-piliangshanchu" unicode="&#58979;" d="M800 768L224 768c-53.02 0-96-42.98-96-96l0-32 768 0 0 32C896 725.02 853.02 768 800 768zM632.32 832l14.116-101L377.564 731l14.114 101L632.32 832M640 896L384 896c-26.4 0-50.99-21.392-54.642-47.538l-18.714-133.924C306.99 688.392 325.6 667 352 667l320 0c26.4 0 45.01 21.392 41.358 47.538l-18.712 133.924C690.99 874.608 666.4 896 640 896L640 896zM816 576L208 576c-35.2 0-61.392-28.682-58.206-63.738l52.412-576.526C205.392-99.31799999999998 236.8-128 272-128l480 0c35.2 0 66.608 28.682 69.794 63.736l52.408 576.526C877.392 547.318 851.2 576 816 576zM384 0l-96 0-32 448 128 0L384 0zM576 0l-128 0L448 448l128 0L576 0zM736 0l-96 0L640 448l128 0L736 0z"  horiz-adv-x="1024" />

    
    <glyph glyph-name="iconfontdown2" unicode="&#58964;" d="M955.347 287.973c0 245.044-198.647 443.691-443.691 443.691S67.965 533.017 67.965 287.973s198.647-443.691 443.691-443.691S955.347 42.929 955.347 287.973zM150.878 287.246c0 199.253 161.526 360.778 360.778 360.778s360.775-161.527 360.775-360.778S710.906-73.531 511.654-73.531 150.878 87.993 150.878 287.246zM512.5 149.774c-0.281-0.006-0.564-0.013-0.846-0.013-0.282 0-0.565 0.007-0.847 0.013-0.454 0.009-0.906 0.021-1.359 0.045-0.11 0.005-0.222 0.015-0.332 0.021-10.565 0.612-20.915 5.123-28.621 13.462l-150.448 162.81c-15.794 17.093-14.733 44.002 2.36 59.796s44.001 14.733 59.796-2.36l119.451-129.267 119.452 129.267c15.796 17.093 42.703 18.154 59.796 2.36 17.093-15.796 18.154-42.703 2.36-59.796L542.815 163.301c-7.706-8.338-18.057-12.85-28.622-13.462-0.11-0.006-0.222-0.015-0.332-0.021C513.408 149.795 512.955 149.783 512.5 149.774z"  horiz-adv-x="1024" />

    
    <glyph glyph-name="jiahao" unicode="&#58911;" d="M902.947 324.97299999999996h-332.293v-332.346c0-32.387-26.267-58.628-58.655-58.628-32.387 0-58.654 26.241-58.654 58.628v332.346h-332.295c-32.414 0-58.654 26.241-58.654 58.628 0 32.375 26.243 58.628 58.654 58.628h332.293v332.346c0 32.375 26.267 58.628 58.654 58.628 32.388 0 58.655-26.254 58.655-58.628v-332.347h332.293c32.414 0 58.655-26.252 58.655-58.626-0.001-32.387-26.241-58.626-58.655-58.626z"  horiz-adv-x="1024" />

    
    <glyph glyph-name="shanchu" unicode="&#58894;" d="M862.439906 555.788687l-126.916575-0.025583 0 64.929802c0 35.040051-28.404933 63.444984-63.444984 63.444984L351.92063 684.137891c-35.040051 0-63.444984-28.404933-63.444984-63.444984l0-65.017806-127.128399-0.025583c-18.531052-0.004093-33.55114-15.029298-33.54807-33.561373 0.004093-18.531052 15.029298-33.55114 33.561373-33.54807l701.091636 0.13917c18.531052 0.004093 33.55114 15.029298 33.54807 33.561373C895.997186 540.771669 880.970958 555.791757 862.439906 555.788687zM355.723236 584.144502c0 18.08489 14.660908 32.745798 32.745798 32.745798l247.060909 0c18.08489 0 32.745798-14.660908 32.745798-32.745798l0-28.3947-312.552505-0.062422L355.723236 584.144502zM427.33011 44.365832c18.531052 0.004093 33.55114 15.029298 33.54807 33.561373l-0.13917 316.425719c-0.004093 18.531052-15.029298 33.55114-33.561373 33.54807-18.531052-0.004093-33.55114-15.029298-33.54807-33.561373l0.13917-316.425719C393.77283 59.381827 408.799058 44.361739 427.33011 44.365832zM596.820316 44.365832c18.531052 0.004093 33.55114 15.029298 33.54807 33.561373l-0.13917 316.425719c-0.004093 18.531052-15.029298 33.55114-33.561373 33.54807-18.531052-0.004093-33.55114-15.029298-33.54807-33.561373l0.13917-316.425719C563.263036 59.381827 578.289264 44.361739 596.820316 44.365832zM799.719422 394.351901c-0.004093 18.531052-15.029298 33.55114-33.561373 33.54807-18.531052-0.004093-33.55114-15.029298-33.54807-33.561373l0.008186-21.61018-0.008186 0 0-357.030509c0-18.08489-14.660908-32.745798-32.745798-32.745798L324.133773-17.04789c-18.08489 0-32.745798 14.660908-32.745798 32.745798L291.387975 369.6585l-0.128937 0-0.010233 24.693402c-0.004093 18.531052-15.029298 33.55114-33.561373 33.54807-18.531052-0.004093-33.55114-15.029298-33.54807-33.561373l0.010233-24.680099-0.010233 0 0-390.508995c0-35.040051 28.404933-63.444984 63.444984-63.444984l448.829262 0c35.040051 0 63.444984 28.404933 63.444984 63.444984L799.858592 372.728418l-0.130983 0L799.719422 394.351901z"  horiz-adv-x="1024" />

    
    <glyph glyph-name="tixing" unicode="&#58912;" d="M515.696694 522.680639c22.339798 0 40.448224-18.102287 40.448224-40.442084 0-22.333658-18.108426-40.435944-40.448224-40.435944-22.329565 0-40.437991 18.101263-40.437991 40.435944C475.258703 504.578352 493.366106 522.680639 515.696694 522.680639L515.696694 522.680639zM515.696694 388.444355c18.685571 0 33.881668-15.19712 33.881668-33.879622l0-253.363452c0-18.679431-15.19712-33.869389-33.881668-33.869389-18.675338 0-33.872458 15.189957-33.872458 33.869389L481.824235 354.564733C481.824235 373.247234 497.021356 388.444355 515.696694 388.444355zM515.696694 354.564733M515.696694-93.174708c217.59583 0 393.972886 176.389336 393.972886 393.979026 0 217.5989-176.377056 393.988236-393.966747 393.988236-217.584574 0-393.981073-176.390359-393.981073-393.988236C121.721761 83.214628 298.11212-93.174708 515.696694-93.174708zM515.696694 642.263178c188.278107 0 341.442486-153.171542 341.442486-341.458859 0-188.279131-153.164379-341.449649-341.442486-341.449649-188.267874 0-341.444533 153.170518-341.444533 341.449649C174.251138 489.092659 327.428819 642.263178 515.696694 642.263178z"  horiz-adv-x="1024" />

    
    <glyph glyph-name="zhize" unicode="&#58914;" d="M592.341816 277.79616599999997c-8.815783 3.25616-17.613146 6.374174-26.327622 9.255805-5.5279 1.798972-40.417525 17.530258-18.61701 83.816964l-0.301875 0c56.825217 58.519812 100.256378 152.745846 100.256378 245.477854 0 142.606929-94.832855 217.334887-205.02656 217.334887-110.262266 0-204.554816-74.726935-204.554816-217.334887 0-93.107561 43.194778-187.705056 100.360755-246.089791 22.276353-58.45432-17.565051-80.153528-25.903973-83.20605-115.414613-41.736567-250.801093-117.821429-250.801093-192.922894 0-20.275789 0-8.003278 0-28.14399 0-96.461959 176.309518-122.637108 350.331947-125.317147-2.51017 13.360286-2.492774 27.2619 1.475608 40.792055l43.010583 146.541541c4.50664 15.491833 13.390985 29.42824 25.799596 40.514739L592.341816 277.79616599999997zM813.168224 241.88835200000005l-33.719986 33.772174 0.187265 0.201591-45.11143 45.097104L529.22429 117.48808699999995c-2.812045-2.270716-5.221932-5.152347-6.304589-8.881274l-43.062771-146.71141c-1.88186-6.443759-0.100284-13.325493 4.596691-18.040888 3.475148-3.489474 8.134261-5.357008 12.897751-5.357008 1.715061 0 3.427052 0.239454 5.121648 0.74599l146.759505 43.093471c3.475148 1.017166 6.191003 3.187599 8.392134 5.767354l205.79404 203.977671-50.027393 50.009997L813.168224 241.88835200000005zM548.549427-9.217685999999958l-17.172101 17.189498 23.175839 78.93477 9.902534-9.902534 48.499597-3.968381 2.680039-47.263443 11.867282-11.83249L548.549427-9.217685999999958zM753.172805 341.436602L882.066407 212.561419 911.546835 240.19478000000004 782.653233 369.10475499999995ZM945.454086 343.301066l-61.793368 61.742203c-17.037025 17.057491-44.535309 17.22429-61.405535 0.340761l-18.953677-19.155269 123.522268-123.552967 18.952654 19.189038C962.643584 298.71459200000004 962.508507 326.21287600000005 945.454086 343.301066z"  horiz-adv-x="1024" />

    
    <glyph glyph-name="liebiao" unicode="&#58935;" d="M256 616.704c-28.288 0-51.2-20.832-51.2-46.56 0-25.696 22.912-46.528 51.2-46.528s51.2 20.832 51.2 46.528C307.2 595.904 284.288 616.704 256 616.704L256 616.704zM256 244.35199999999998c-28.288 0-51.2-20.832-51.2-46.528 0-25.728 22.912-46.56 51.2-46.56s51.2 20.832 51.2 46.56C307.2 223.51999999999998 284.288 244.35199999999998 256 244.35199999999998L256 244.35199999999998zM256 430.56c-28.288 0-51.2-20.832-51.2-46.56s22.912-46.56 51.2-46.56S307.2 358.27200000000005 307.2 384 284.288 430.56 256 430.56L256 430.56zM768 244.35199999999998l-307.2 0c-28.288 0-51.2-20.832-51.2-46.528 0-25.728 22.912-46.56 51.2-46.56L768 151.264c28.288 0 51.2 20.832 51.2 46.56C819.2 223.51999999999998 796.288 244.35199999999998 768 244.35199999999998L768 244.35199999999998zM768 616.704l-307.2 0c-28.288 0-51.2-20.832-51.2-46.56 0-25.696 22.912-46.528 51.2-46.528L768 523.616c28.288 0 51.2 20.832 51.2 46.528C819.2 595.904 796.288 616.704 768 616.704L768 616.704zM921.6 896L102.4 896C45.824 896 0 854.336 0 802.912L0-34.879999999999995C0-86.33600000000001 45.824-128 102.4-128L921.6-128c56.576 0 102.4 41.664 102.4 93.12L1024 802.912C1024 854.336 978.176 896 921.6 896L921.6 896zM921.6 11.648000000000025c0-25.696-22.944-46.528-51.232-46.528L153.6-34.879999999999995c-28.288 0-51.232 20.832-51.232 46.528L102.368 756.352c0 25.696 22.944 46.56 51.232 46.56L870.4 802.912c28.288 0 51.232-20.864 51.232-46.56L921.632 11.648000000000025 921.6 11.648000000000025zM768 430.56l-307.2 0c-28.288 0-51.2-20.832-51.2-46.56s22.912-46.56 51.2-46.56L768 337.44000000000005c28.288 0 51.2 20.832 51.2 46.56S796.288 430.56 768 430.56L768 430.56zM768 430.56"  horiz-adv-x="1024" />

    
    <glyph glyph-name="zhunbeijl" unicode="&#58915;" d="M176-128l672 0c26.464 0 48 21.536 48 48l0 672c0 0.544-0.256 0.992-0.288 1.504-0.064 0.736-0.256 1.376-0.416 2.08-0.544 2.272-1.472 4.32-2.88 6.112-0.224 0.288-0.192 0.64-0.416 0.928l-256 288c-0.096 0.096-0.224 0.096-0.32 0.192-1.92 2.048-4.352 3.456-7.136 4.288-0.608 0.192-1.152 0.256-1.792 0.352C625.824 895.616 624.96 896 624 896l-448 0C149.536 896 128 874.4639999999999 128 848l0-928C128-106.46400000000006 149.536-128 176-128zM640 837.92L844.384 608 656 608C648.96 608 640 621.44 640 632L640 837.92zM160 848C160 856.832 167.2 864 176 864L608 864l0-232C608 606.1120000000001 628.96 576 656 576L864 576l0-656c0-8.832-7.2-16-16-16l-672 0C167.04-96 160-88.96000000000004 160-80L160 848zM304 448l416 0c8.832 0 16 7.168 16 16S728.832 480 720 480l-416 0C295.168 480 288 472.832 288 464S295.168 448 304 448zM304 320l416 0c8.832 0 16 7.168 16 16S728.832 352 720 352l-416 0C295.168 352 288 344.832 288 336S295.168 320 304 320zM304 576l192 0c8.832 0 16 7.168 16 16S504.832 608 496 608l-192 0C295.168 608 288 600.832 288 592S295.168 576 304 576zM304 192l416 0c8.832 0 16 7.168 16 16S728.832 224 720 224l-416 0C295.168 224 288 216.832 288 208S295.168 192 304 192zM304 64l416 0c8.832 0 16 7.168 16 16S728.832 96 720 96l-416 0C295.168 96 288 88.832 288 80S295.168 64 304 64z"  horiz-adv-x="1024" />

    
    <glyph glyph-name="diaoyanjl" unicode="&#58892;" d="M902.784 275.88266699999997L875.562667 248.23466699999994C874.368 250.62400000000002 872.704 252.97066700000005 870.4 255.14666699999998L795.477333 325.504C792.917333 327.893333 790.229333 329.472 787.541333 330.496L808.661333 351.914667C831.658667 375.29600000000005 851.84 392.746667 886.485333 357.63199999999995 921.130667 322.517333 925.781333 299.264 902.784 275.88266699999997ZM797.013333 761.2586670000001C797.013333 815.146667 743.893333 815.146667 743.893333 815.146667L290.858667 815.146667 425.301333 680.405333 159.786667 410.965333 159.786667 6.741333000000054C159.786667-47.14666699999998 212.864-47.14666699999998 212.864-47.14666699999998L373.034667-47.14666699999998 346.453333-128 212.864-128C154.197333-128 106.666667-79.74400000000003 106.666667-20.224000000000046L106.666667 464.853333 265.984 896 743.893333 896C802.56 896 850.133333 847.744 850.133333 788.224L850.133333 462.208 797.013333 406.058667 797.013333 761.2586670000001ZM190.805333 591.146667L319.061333 734.336 265.984 788.224 190.805333 591.146667ZM480.213333 18.133332999999993C481.024 14.933332999999948 482.645333 11.818667000000005 485.376 9.301333L560.298667-61.05600000000004C561.749333-62.421333000000004 563.370667-63.445333000000005 565.034667-64.25599999999997 512.128-80.63999999999999 485.717333-112.469333 425.301333-128 425.301333-128 469.077333-19.327999999999975 475.477333 13.312000000000012L480.213333 18.133332999999993ZM743.893333-47.14666699999998C797.013333-47.14666699999998 797.013333 6.741333000000054 797.013333 6.741333000000054L797.013333 112.51199999999994 850.133333 166.01599999999996 850.133333-20.224000000000046C850.133333-79.74400000000003 802.56-128 743.893333-128L593.450667-128 642.389333-47.14666699999998 743.893333-47.14666699999998ZM777.429333 305.70666700000004L852.352 235.349333C854.4 233.47199999999998 856.704 232.277333 859.050667 231.42399999999998L583.637333-48.469333000000006C582.442667-45.99466700000005 580.736-43.56266700000003 578.304-41.258666999999946L503.381333 29.05600000000004C500.949333 31.360000000000014 498.346667 32.93866700000001 495.786667 33.96266700000001L772.224 314.88C772.949333 311.552 774.613333 308.352 777.429333 305.70666700000004ZM478.378667 168.40533300000004L239.445333 168.40533300000004 239.445333 222.336 478.378667 222.336 478.378667 168.40533300000004ZM239.445333 330.11199999999997L478.378667 330.11199999999997 478.378667 276.22400000000005 239.445333 276.22400000000005 239.445333 330.11199999999997ZM717.354667 357.07733299999995L239.445333 357.07733299999995 239.445333 410.965333 717.354667 410.965333 717.354667 357.07733299999995ZM690.816 491.776L478.378667 491.776 478.378667 545.7066669999999 690.816 545.7066669999999 690.816 491.776ZM478.378667 734.336L690.816 734.336 690.816 680.405333 478.378667 680.405333 478.378667 734.336ZM690.816 599.5946670000001L478.378667 599.5946670000001 478.378667 653.482667 690.816 653.482667 690.816 599.5946670000001Z"  horiz-adv-x="1024" />

    
    <glyph glyph-name="xiangmuweihu" unicode="&#59710;" d="M159.552367 558.626179l253.986645 0 0-31.760354-253.986645 0 0 31.760354ZM159.552367 431.616484l285.747 0 0-31.743982-285.747 0 0 31.743982ZM159.552367 304.623161l253.986645 0 0-31.743982-253.986645 0 0 31.743982ZM159.552367 177.629839l253.986645 0 0-31.760354-253.986645 0 0 31.760354ZM544.456714 18.891512 127.792013 18.891512 127.792013 749.108488l317.507354 0 0-158.753677 158.738327 0 0-174.260859c19.666922 11.33107 40.977273 20.125363 63.488986 25.941835l0 211.824383L508.788353 812.612825 64.303027 812.612825l0-857.226672L637.492644-44.613848C601.867262-30.507572 570.170353-8.639518 544.456714 18.891512zM831.547315 108.383732c-7.877411 0-14.266935-6.374174-14.266935-14.251585s6.389524-14.251585 14.266935-14.251585c7.844665 0 14.234189 6.374174 14.234189 14.251585S839.39198 108.383732 831.547315 108.383732zM731.837382 421.683251c-125.839033 0-227.857545-102.018511-227.857545-227.857545s102.018511-227.873917 227.857545-227.873917c125.840056 0 227.858568 102.034884 227.858568 227.873917S857.677439 421.683251 731.837382 421.683251zM831.547315 51.411159c-19.391652 0-35.146475 13.158694-40.333614 30.874171l-2.40477-2.40477-89.206718 89.23844c-29.135574-8.729825-61.938678-1.960655-84.936461 21.038152-23.725354 23.724331-30.241768 57.857732-20.24509 87.655386l55.200206-55.516408 43.432185 10.233062 10.187013 43.670615-54.885028 55.169507c29.67281 9.78997 63.551408 3.226484 87.150896-20.37198 22.997784-22.997784 29.767977-55.786561 21.036106-84.920088l89.23844-89.223091-2.403746-2.388397c17.714454-5.218862 30.874171-20.956288 30.874171-40.332591C874.252952 70.518333 855.146802 51.411159 831.547315 51.411159z"  horiz-adv-x="1024" />

    
    <glyph glyph-name="dun001" unicode="&#58930;" d="M934.98548224 834.27597539c0 0-203.69458403 60.06714595-411.34777117 60.06714596-215.8859173 0-436.09602617-60.06714595-436.09602616-60.06714596s-10.80000057-649.47405141 77.07749717-737.34339925c87.86818275-87.86818275 247.56522098-223.72162333 346.08786887-223.72162332 98.51333291 0 264.16341106 141.01126713 347.02861881 223.86832384C940.59156253 179.93633451000005 934.98548224 834.27597539 934.98548224 834.27597539zM744.04924302 410.84748003L570.29683541 410.84748003l-14.59560334-28.1864192 0-55.88616305 188.34801095 0 0-62.79276089L555.70123321 263.98213689l0-126.20492686-84.68500025 0L471.01623182 263.98213689 282.40159744 263.98213689l0 62.79276089 188.61463438 0 0 55.88616305-13.57218702 28.1864192L282.40159744 410.84748003l0 62.8009108L427.20963015 473.64839083l-124.39444821 209.02589098 87.90427648 0 124.91605219-209.02589098 122.00764302 209.02589098 87.86818276 0-126.28759097-209.02589098L744.04924302 473.64839083 744.04924302 410.84748003zM555.70123321 137.77604608000001"  horiz-adv-x="1024" />

    
    <glyph glyph-name="yonghujuese" unicode="&#59020;" d="M512.001023-123.62331900000004c-280.353153 0-507.625366 227.270167-507.625366 507.623319 0 280.350083 227.273237 507.623319 507.625366 507.623319s507.623319-227.273237 507.623319-507.623319C1019.624343 103.64684699999998 792.354176-123.62331900000004 512.001023-123.62331900000004zM512.001023 282.47574499999996L512.001023 282.47574499999996 512.001023 282.47574499999996 512.001023 282.47574499999996 512.001023 282.47574499999996zM512.001023 836.744431c-250.045893 0-452.747501-202.700585-452.747501-452.744431 0-113.312742 41.915645-216.639039 110.711498-296.048623 44.436048 101.770871 157.682275 177.224354 295.131741 191.525058 1.146103 0.1361 2.245134 0.412392 3.394307 0.539282l43.49563 2.460028c0.00307 0 0.008186 0 0.014326 0l0 0 0 0 0 0c0.00614 0 0.00921 0 0.014326 0-0.00307 0-0.00921 0-0.011256 0 28.977985 0 43.50791-2.460028 43.50791-2.460028 1.128707-0.127913 2.210341-0.393973 3.335978-0.531096 137.139403-14.256702 250.145154-89.414449 294.807353-190.834326 0.040932-0.391926-0.124843-0.826831-0.096191-1.220804 8.020674 9.227152 15.573697 18.825764 22.834055 28.685319-7.124258-9.653871-14.512529-19.107173-22.356171-28.163433-0.107447 0.243547-0.278339 0.458441-0.382717 0.698918 7.770987 8.994861 15.678074 17.877159 22.738887 27.463492 55.284117 75.069743 88.352257 167.507038 88.352257 267.88519C964.745455 634.043846 762.04487 836.744431 512.001023 836.744431zM512.001023 340.48697400000003c-88.11178 0-159.538553 71.429843-159.538553 159.538553 0 88.11178 71.426773 159.538553 159.538553 159.538553 88.10871 0 159.538553-71.426773 159.538553-159.538553C671.539576 411.916816 600.110757 340.48697400000003 512.001023 340.48697400000003zM511.998977 282.47574499999996c-0.00614 0-0.008186 0-0.011256 0C511.989767 282.47574499999996 511.992837 282.47574499999996 511.998977 282.47574499999996L511.998977 282.47574499999996zM512.001023 282.47574499999996c-0.00307 0-0.00307 0-0.00307 0C507.180228 282.47574499999996 505.594103 282.47574499999996 512.001023 282.47574499999996z"  horiz-adv-x="1024" />

    
    <glyph glyph-name="xiala" unicode="&#58889;" d="M38.28956 733.458043l383.724475-376.875486c0 0 29.9358-38.58683 92.886527-38.58683 54.833863 0 88.12713 26.977421 88.12713 26.977421l386.686946 388.484895c0 0-16.284895 104.944144-101.736079 42.778292-29.887704-21.74321-279.554974-199.25102-279.554974-199.25102s-116.901477-43.165102-199.63783 14.389732C326.739111 648.450974 139.003356 787.414933 139.003356 787.414933S50.943764 823.565271 38.28956 733.458043zM47.502385 388.593622l383.723451-376.875486c0 0 29.936823-38.58683 92.886527-38.58683 54.833863 0 88.12713 26.977421 88.12713 26.977421l386.686946 388.484895c0 0-16.284895 104.945167-101.736079 42.779316-29.887704-21.74321-279.554974-199.25102-279.554974-199.25102s-116.901477-43.166125-199.63783 14.389732c-82.045621 57.075927-269.781376 196.039885-269.781376 196.039885S60.15659 478.700849 47.502385 388.593622z"  horiz-adv-x="1024" />

    
    <glyph glyph-name="baobiao1" unicode="&#58882;" d="M860.693447-42.666661 163.306553-42.666661C133.694432-42.666661 109.661407-18.633636 109.661407 10.978484L109.661407 757.021526C109.661407 786.633647 133.694432 810.666672 163.306553 810.666672L860.693447 810.666672C890.305568 810.666672 914.338593 786.633647 914.338593 757.021526L914.338593 10.978484C914.338593-18.633636 890.305568-42.666661 860.693447-42.666661ZM860.693447 703.966477 163.306553 703.966477 163.306553 10.656614 860.693447 10.656614 860.693447 703.966477ZM807.048302 277.326633 216.951698 277.326633 216.951698 650.643202 807.048302 650.643202 807.048302 277.326633ZM530.185704 429.303331 424.772993 534.072301C423.968316 535.252494 424.236542 536.861848 423.217284 537.881106 417.852769 543.191975 410.8789 545.284136 403.851386 544.962265 396.877517 545.284136 389.903648 543.191975 384.539134 537.881106 383.466231 536.861848 383.788102 535.252494 382.929779 534.072301L277.517068 429.303331C267.485426 419.271689 267.485426 403.070855 277.517068 393.092858 287.602355 383.11486 303.91048 383.11486 313.942122 393.092858L403.851386 482.46567 493.814296 393.092858C503.845938 383.11486 520.154062 383.11486 530.185704 393.092858 540.270992 403.070855 540.270992 419.271689 530.185704 429.303331ZM746.161061 588.575769C745.570965 589.380446 745.83919 590.506994 745.088158 591.258026 743.586094 592.76009 741.386643 592.438219 739.616353 593.511122 739.616353 593.511122 739.562708 593.511122 739.562708 593.511122 737.738773 594.53038 735.914838 595.281412 733.876323 595.871508 733.876323 595.871508 733.876323 595.871508 733.822678 595.871508 733.769033 595.871508 733.769033 595.871508 733.715387 595.871508 731.408646 596.51525 729.101905 597.319927 726.580583 597.319927 726.097777 597.319927 725.722261 597.105347 725.293099 597.051702 724.649358 597.051702 724.112906 597.427218 723.415519 597.319927L619.290291 597.319927C604.484231 597.319927 592.467719 585.410705 592.467719 570.65829 592.467719 555.905875 606.898263 545.659652 646.112864 543.996653L661.133505 543.996653 545.742797 429.303331C535.711154 419.271689 535.711154 403.070855 545.742797 393.092858 555.828084 383.11486 572.136208 383.11486 582.167851 393.092858L699.75801 509.98563 699.75801 464.172676C699.75801 449.31297 711.774523 437.350103 726.580583 437.350103 741.386643 437.350103 753.403156 449.31297 753.403156 464.172676L753.403156 570.497355C753.403156 570.551 753.403156 570.551 753.403156 570.604645 753.403156 570.604645 753.403156 570.65829 753.403156 570.65829 753.403156 574.19887 752.652124 577.524869 751.36464 580.528997 750.345383 583.103964 748.736028 585.196124 747.019383 587.288285 746.697513 587.717446 746.536577 588.200253 746.161061 588.575769ZM592.467719 170.680083 216.951698 170.680083 216.951698 224.003358 592.467719 224.003358 592.467719 170.680083ZM753.403156 63.979888 216.951698 63.979888 216.951698 117.356808 753.403156 117.356808 753.403156 63.979888Z"  horiz-adv-x="1024" />

    
    <glyph glyph-name="wendangdinyi" unicode="&#59356;" d="M510.757195 636.100692c20.826328 0 38.816051 17.041118 37.867446 36.923958l0 75.742055c0 20.829398-17.041118 37.871539-37.867446 37.871539-20.829398 0-37.871539-17.042141-37.871539-37.871539l0-74.79345C472.885656 653.142833 489.927797 636.100692 510.757195 636.100692zM320.453964 636.100692c20.829398 0 37.870516 17.041118 37.870516 36.923958l0 75.742055c0 20.829398-17.041118 37.871539-37.870516 37.871539-20.830421 0-37.871539-17.042141-37.871539-37.871539l0-74.79345C282.582425 653.142833 299.623543 636.100692 320.453964 636.100692zM702.00596 636.100692c20.828374 0 37.870516 17.041118 37.870516 36.923958l0 75.742055c0 20.829398-17.041118 37.871539-37.870516 37.871539-20.829398 0-37.872562-17.042141-37.872562-37.871539l0-74.79345C664.133398 653.142833 681.175539 636.100692 702.00596 636.100692zM843.074859 710.895165l-63.435775 0 0-37.870516c0-41.658795-34.084283-75.743078-76.689636-75.743078-42.602284 0-76.685543 34.084283-76.685543 75.743078l0 37.870516-37.871539 0 0-37.870516c0-41.658795-34.084283-75.743078-76.69066-75.743078-42.602284 0-76.68452 34.084283-76.68452 75.743078l0 37.870516-37.871539 0 0-36.922934c0-41.658795-34.08326-75.743078-76.689636-75.743078-42.6074 0-76.69066 34.08326-76.69066 75.743078L243.765351 711.842747l-63.431681 0c-20.829398 0-37.871539-17.041118-37.871539-37.870516l0-654.220119c0-20.828374 17.042141-37.871539 37.871539-37.871539l661.796678 0c20.828374 0 37.868469 17.042141 38.817074 37.871539L880.947422 673.024649C880.945375 693.854047 863.904257 710.895165 843.074859 710.895165zM777.956769 392.68173c0-4.520967-3.665483-8.18645-8.18645-8.18645L254.227634 384.49528c-4.520967 0-8.18645 3.665483-8.18645 8.18645l0 35.839253c0 4.520967 3.665483 8.18645 8.18645 8.18645l515.542686 0c4.520967 0 8.18645-3.665483 8.18645-8.18645L777.956769 392.68173zM777.956769 289.003416c0-4.520967-3.665483-8.18645-8.18645-8.18645L254.227634 280.816966c-4.520967 0-8.18645 3.665483-8.18645 8.18645l0 35.839253c0 4.520967 3.665483 8.18645 8.18645 8.18645l515.542686 0c4.520967 0 8.18645-3.665483 8.18645-8.18645L777.956769 289.003416zM777.956769 185.137837c0-4.520967-3.665483-8.18645-8.18645-8.18645L254.227634 176.95138699999995c-4.520967 0-8.18645 3.665483-8.18645 8.18645l0 35.839253c0 4.520967 3.665483 8.18645 8.18645 8.18645l515.542686 0c4.520967 0 8.18645-3.665483 8.18645-8.18645L777.956769 185.137837z"  horiz-adv-x="1024" />

    
    <glyph glyph-name="sousuo" unicode="&#59084;" d="M941.2608 27.136l-152.917333 152.917333c122.197333 157.832533 111.2064 385.467733-33.655467 530.3296-78.574933 78.574933-181.5552 117.8624-284.535467 117.8624-102.980267 0-205.960533-39.287467-284.535467-117.8624-157.149867-157.149867-157.149867-411.9552 0-569.105067 78.574933-78.574933 181.5552-117.8624 284.535467-117.8624 86.869333 0 173.568 28.296533 245.794133 84.241067l152.917333-152.917333c10.001067-10.001067 23.108267-14.984533 36.215467-14.984533s26.2144 4.983467 36.215467 14.984533C961.262933-25.258667 961.262933 7.133867 941.2608 27.136zM258.013867 213.7088c-56.661333 56.661333-87.8592 131.9936-87.8592 212.138667s31.197867 155.477333 87.8592 212.138667c56.661333 56.661333 131.9936 87.8592 212.138667 87.8592s155.477333-31.197867 212.138667-87.8592 87.8592-131.9936 87.8592-212.138667-31.197867-155.477333-87.8592-212.138667-131.9936-87.8592-212.138667-87.8592S314.6752 157.047467 258.013867 213.7088z"  horiz-adv-x="1024" />

    
    <glyph glyph-name="icon" unicode="&#58888;" d="M258.551102 372.235049c5.145184-5.14109 12.253068-8.328689 20.094664-8.334829l217.625506-0.159636 0.165776-217.630622c0-7.840572 3.186576-14.944364 8.332782-20.088524 5.14109-5.142114 12.243859-8.332782 20.091594-8.334829 15.689331-0.016373 28.40084 12.695137 28.385491 28.384467l-0.160659 217.628576 217.625506-0.163729c15.688307-0.014326 28.399817 12.698207 28.385491 28.385491-0.005117 15.688307-12.736069 28.418236-28.424376 28.428469l-217.624483 0.165776-0.165776 217.620389c-0.010233 15.689331-12.735046 28.41619-28.424376 28.429493-15.689331 0.010233-28.40084-12.701277-28.389584-28.385491l0.164752-217.624483-217.624483 0.160659c-15.689331 0.010233-28.40084-12.701277-28.390607-28.385491C250.22139 384.479931 253.408989 377.376139 258.551102 372.235049M920.518672 388.376681c0 108.99746-42.503023 211.475436-119.685893 288.551882C723.649909 754.008079 621.030717 796.45175 511.873622 796.45175c-109.154026 0-211.773218-42.443671-288.961204-119.523187-77.181847-77.076446-119.683846-179.549306-119.683846-288.551882 0-79.410608 22.861684-156.398026 66.124-222.647893 8.576329-13.129019 26.187429-16.824177 39.341007-8.268314 13.149485 8.568143 16.856923 26.152637 8.280594 39.287795-37.2156 56.988945-56.892755 123.254162-56.892755 191.628412 0 193.7047 157.815305 351.299995 351.793228 351.299995 193.986109 0 351.796298-157.595294 351.796298-351.299995 0-193.71084-157.819398-351.306134-351.796298-351.306134-64.238047 0-127.07621 17.440208-181.728948 50.441832-13.43601 8.112772-30.91101 3.807722-39.035038-9.607822-8.123005-13.416568-3.817955-30.867008 9.612938-38.977733 63.531965-38.355563 136.545886-58.626235 211.151048-58.626235 109.151979 0 211.772194 42.443671 288.955064 119.523187C878.011556 176.899198 920.518672 279.374104 920.518672 388.376681"  horiz-adv-x="1024" />

    
    <glyph glyph-name="fanghui" unicode="&#58895;" d="M648.217405-19.048589 110.059652-19.048589c-24.452925 0-44.285622 19.351744-44.285622 43.212174 0 23.854291 19.827581 43.202964 44.285622 43.202964L648.217405 67.366549c122.087593 0 221.437321 96.918353 221.437321 216.032218 0 119.114888-99.350752 216.034265-221.437321 216.034265L110.059652 499.433032c-17.902742 0-34.054607 10.524704-40.914852 26.665313-6.853082 16.158005-3.068895 34.727942 9.602705 47.086411l204.363458 201.206558c17.302061 16.877389 45.324278 16.877389 62.626339 0 17.298991-16.879436 17.298991-44.216038 0-61.096497L216.975706 585.842031l431.234535 0c170.942277 0 310.016753-135.670959 310.016753-302.443263C958.226994 116.630556 819.159682-19.048589 648.217405-19.048589L648.217405-19.048589zM648.217405-19.048589"  horiz-adv-x="1024" />

    
    <glyph glyph-name="zhongzhi" unicode="&#58921;" d="M975.9968 528 767.9984 528c-26.4992 0-47.992 21.504-47.992 48.0032s21.4928 48.0032 47.992 48.0032l83.5072 0C776.1904 730.4384 652.2864 800.0032 511.9984 800.0032 282.2528 800.0032 96.0048 613.7536 96.0048 384.0032c0-229.7456 186.248-416 415.9936-416s416 186.2544 416 416c0 26.4992 21.4976 48.0032 47.9968 48.0032 26.504 0 48.0032-21.4976 48.0032-48.0032 0-282.7552-229.2512-512-512-512C229.2208-127.9968 0.0048 101.2592 0.0048 384.0032 0.0048 666.7808 229.2208 895.9968 511.9984 895.9968c171.5936 0 323.192-84.5936 416-214.2144L927.9984 768.0032C927.9984 794.496 949.4976 816 975.9968 816c26.504 0 48.0032-21.504 48.0032-47.9968l0.0064-192C1024.0048 549.504 1002.5008 528 975.9968 528L975.9968 528zM975.9968 528"  horiz-adv-x="1025" />

    
    <glyph glyph-name="execute" unicode="&#59000;" d="M61.44 318.464c114.688-94.208 225.28-135.168 323.584-139.264v98.304c-98.304 8.192-204.8 53.248-323.584 172.032v-131.072zM770.048 621.568c0 151.552-159.744 274.432-356.352 274.432-192.512 0-352.256-122.88-352.256-274.432 0-143.36 143.36-258.048 323.584-270.336v479.232l380.928-253.952c0 16.384 4.096 32.768 4.096 45.056zM962.56 318.464l-237.568 176.128-278.528 208.896 0-708.608 180.224 217.088 200.704-335.872 110.592 65.536-200.704 335.872 225.28 40.96z"  horiz-adv-x="1024" />

    
    <glyph glyph-name="shejijl" unicode="&#58920;" d="M803.925211-46.77916400000004L251.118829-46.77916400000004c-66.103534 0-119.882368 55.901171-119.882368 124.611066L131.236462 723.593372c0 68.710918 53.778834 124.612089 119.882368 124.612089l552.806381 0c66.10251 0 119.878275-55.901171 119.878275-124.612089l0-645.760446C923.804509 9.122007000000053 870.026698-46.77916400000004 803.925211-46.77916400000004zM251.118829 792.711566c-35.503609 0-64.387449-31.006178-64.387449-69.118194l0-645.760446c0-38.110993 28.884864-69.117171 64.387449-69.117171l552.806381 0c35.501562 0 64.384379 31.006178 64.384379 69.117171L868.30959 723.593372c0 38.112016-28.882817 69.118194-64.384379 69.118194L251.118829 792.711566zM739.794611 143.64993300000003L288.538067 143.64993300000003c-17.825994 0-32.290427 14.433734-32.290427 32.290427s14.464433 32.290427 32.290427 32.290427l451.256544 0c17.853623 0 32.29145-14.433734 32.29145-32.290427S757.649258 143.64993300000003 739.794611 143.64993300000003L739.794611 143.64993300000003zM739.794611 336.62092299999995L288.538067 336.62092299999995c-17.825994 0-32.290427 14.433734-32.290427 32.290427s14.464433 32.290427 32.290427 32.290427l451.256544 0c17.853623 0 32.29145-14.433734 32.29145-32.290427S757.649258 336.62092299999995 739.794611 336.62092299999995L739.794611 336.62092299999995zM761.862209 553.074743c0-15.326057-15.459087-27.747971-34.530444-27.747971l-72.199369 0c-19.074428 0-34.530444 12.422937-34.530444 27.747971l0 0c0 15.325034 15.456017 27.746948 34.530444 27.746948l72.199369 0C746.402099 580.821691 761.862209 568.398754 761.862209 553.074743L761.862209 553.074743zM760.600473 665.325293c0-15.325034-15.458063-27.746948-34.530444-27.746948l-72.199369 0c-19.073404 0-34.530444 12.422937-34.530444 27.746948l0 0c0 15.325034 15.45704 27.746948 34.530444 27.746948l72.199369 0C745.141386 693.072241 760.600473 680.649304 760.600473 665.325293L760.600473 665.325293zM476.818221 545.506371c0-13.931291-11.292184-25.224498-25.223474-25.224498L292.676317 520.281873c-13.931291 0-25.224498 11.293207-25.224498 25.224498l0 124.863822c0 13.931291 11.293207 25.224498 25.224498 25.224498l158.917406 0c13.931291 0 25.223474-11.293207 25.223474-25.224498L476.817198 545.506371z"  horiz-adv-x="1024" />

    
    <glyph glyph-name="icon02" unicode="&#58934;" d="M512-107.392c-235.584 0-427.2 191.616-427.2 427.2s191.616 427.2 427.2 427.2c28.288 0 51.2-22.912 51.2-51.2s-22.912-51.2-51.2-51.2c-179.072 0-324.8-145.728-324.8-324.8 0-179.136 145.728-324.8 324.8-324.8 179.136 0 324.8 145.664 324.8 324.8 0 28.288 22.912 51.2 51.2 51.2s51.2-22.912 51.2-51.2c0-235.584-191.616-427.2-427.2-427.2zM504 875.392l311.040-179.584-311.040-179.584zM539.904 51.392c-17.664 0-32 14.336-32 32s14.336 32 32 32c87.104 0 157.952 70.848 157.952 158.016 0 17.664 14.336 32 32 32s32-14.336 32-32c0-122.496-99.52-222.016-221.952-222.016zM554.688 166.848c-10.624 0-19.2 8.576-19.2 19.2s8.576 19.2 19.2 19.2c28.8 0 52.16 23.616 52.16 52.608 0 10.624 8.576 19.2 19.2 19.2s19.2-8.576 19.2-19.2c-0.064-50.176-40.704-91.008-90.56-91.008z"  horiz-adv-x="1024" />

    
    <glyph glyph-name="shishijieduan" unicode="&#58901;" d="M902.943388 179.909765l-0.166799-0.170892c0.017396 0.225127 0.024559 0.343831 0.024559 0.343831s-7.239891 6.848988-11.754718 11.363815L713.43015 367.90339300000005c-14.257725 14.275121-37.400818 14.275121-51.67594 0-14.275121-14.274098-14.275121-37.417191 0-51.674916L839.353095 139.75318300000004c4.983501-4.983501 12.70537-11.562337 12.70537-11.562337s0.232291 0.01842 0.636496 0.054235l-0.382717-0.39295c8.491395-11.380188 13.520945-25.494651 13.520945-40.782845 0-37.685297-30.566156-68.269873-68.252477-68.269873-14.883989 0-27.786857 4.895497-38.658462 13.031804l-0.005117-0.00614-0.034792 0.034792c-2.720971 2.039449-5.319146 4.272303-7.783267 6.692423-1.232061 1.210571-2.423189 2.473331-3.581572 3.773953-0.497327 0.618077-1.020236 1.221828-1.563612 1.814322-0.833995 0.994654-1.654686 2.00261-2.444679 3.039219l-80.56285 80.277348c-0.062422-0.204661-0.112564-0.414439-0.173962-0.620124l-61.986773 61.579497c0.196475 0.130983 0.397043 0.258896 0.593518 0.390903l-52.968375 52.78111c-41.303708-24.727171-89.615017-38.953174-141.252071-38.953174-152.11856 0-275.41877 123.31863-275.41877 275.41877 0 24.210401 3.127224 47.688115 8.995885 70.055542l143.443993-144.357805c0.985444-0.984421 2.016937-1.89414 3.081175-2.742461 1.294482-1.920746 2.785439-3.748371 4.484128-5.448082 14.275121-14.257725 37.418214-14.257725 51.67594 0l145.641031 146.783041c14.274098 14.257725 14.274098 37.400818 0 51.67594-0.904603 0.904603-1.845021 1.749854-2.815115 2.539846-1.233084 1.778506-2.63092 3.477194-4.214998 5.061272L339.474157 745.073592c21.655206 5.475711 44.326555 8.399297 67.684542 8.399297 152.101163 0 275.41877-123.30021 275.41877-275.41877 0-3.880377-0.089028-7.739265-0.251733-11.579733-0.057305-0.733711-0.093121-1.475608-0.107447-2.224668-0.028653-0.582261-0.054235-1.164522-0.085958-1.74576l0.017396 0-0.195451-3.827165c0-20.181645 16.362666-36.544311 36.544311-36.544311s36.544311 16.362666 36.544311 36.544311l-0.134053 4.465708c0 0.173962-0.011256 0.343831-0.013303 0.51677 0.173962 4.475941 0.289596 8.967232 0.289596 13.485129 0 191.71437-155.401326 347.133092-347.115696 347.133092-35.848463 0-70.427002-5.434779-102.95893-15.523555-10.843976-3.363607-31.807427-10.465352-42.166355-14.833847-0.010233-0.004093-0.019443-0.010233-0.029676-0.014326-5.386684-1.714038-10.456143-4.699022-14.7264-8.974395-14.275121-14.275121-14.275121-37.400818 0-51.67594l163.800623-164.828023-94.13803-94.865601-164.163897 165.19232c-14.275121 14.275121-37.418214 14.275121-51.67594 0-3.680832-3.680832-6.404873-7.953136-8.187473-12.507872-0.004093-0.00614-0.008186-0.01228-0.01228-0.019443-2.506077-4.443196-6.04467-14.956643-7.700379-19.052938-16.235776-40.160675-25.175379-84.052325-25.175379-130.031519 0-191.69595 155.418722-347.114672 347.133092-347.114672 43.915186 0 85.916788 8.170077 124.588553 23.050995l157.539013-156.549475c25.76378-30.489408 64.273862-49.855478 107.313098-49.855478 77.56661 0 140.447752 62.881143 140.447752 140.467195C937.957857 122.69876199999999 924.733671 155.16622099999995 902.943388 179.909765z"  horiz-adv-x="1024" />

    
    <glyph glyph-name="addtable" unicode="&#58948;" d="M896 640l-256 256c0 0-512 0-512 0l0-1024 768 0L896 640 896 640zM806.4 640 640 640 640 806.4 806.4 640zM192-64 192 832l384 0 0-192 0-64 64 0 192 0 0-640L192-64zM672 320 544 320 544 448 480 448 480 320 352 320 352 256 480 256 480 128 544 128 544 256 672 256Z"  horiz-adv-x="1024" />

    
    <glyph glyph-name="wendang" unicode="&#58902;" d="M887.443911 598.6304l0-44.578133 0-45.511111 0-477.866667c0-37.6832-30.583467-68.266667-68.266667-68.266667l-614.4 0c-37.6832 0-68.266667 30.583467-68.266667 68.266667l0 705.422222c0 37.6832 30.583467 68.266667 68.266667 68.266667l386.844444 0 45.511111 0 38.001778 0c7.827911 2.594133 16.5888 1.2288 22.801067-5.006222l183.136711-183.136711C885.896533 611.373511 887.876267 604.933689 887.443911 598.6304zM659.888356 531.296711c-12.583822 0-22.755556 10.171733-22.755556 22.755556l0 204.8-45.511111 0-364.088889 0c-25.122133 0-45.511111-20.388978-45.511111-45.511111l0-659.911111c0-25.122133 20.388978-45.511111 45.511111-45.511111l568.888889 0c25.122133 0 45.511111 20.388978 45.511111 45.511111l0 455.111111 0 22.755556L659.888356 531.296711zM682.643911 750.273422l0-173.4656 159.288889 0 0 14.176711L682.643911 750.273422zM728.155022 167.207822l-432.355556 0c-12.583822 0-22.755556 10.171733-22.755556 22.755556s10.171733 22.755556 22.755556 22.755556l432.355556 0c12.583822 0 22.755556-10.171733 22.755556-22.755556S740.738844 167.207822 728.155022 167.207822zM728.155022 303.741156l-432.355556 0c-12.583822 0-22.755556 10.171733-22.755556 22.755556s10.171733 22.755556 22.755556 22.755556l432.355556 0c12.583822 0 22.755556-10.171733 22.755556-22.755556S740.738844 303.741156 728.155022 303.741156zM728.155022 440.274489l-432.355556 0c-12.583822 0-22.755556 10.171733-22.755556 22.755556s10.171733 22.755556 22.755556 22.755556l432.355556 0c12.583822 0 22.755556-10.171733 22.755556-22.755556S740.738844 440.274489 728.155022 440.274489zM546.110578 576.807822l-250.311111 0c-12.583822 0-22.755556 10.171733-22.755556 22.755556s10.171733 22.755556 22.755556 22.755556l250.311111 0c12.583822 0 22.755556-10.171733 22.755556-22.755556S558.6944 576.807822 546.110578 576.807822z"  horiz-adv-x="1024" />

    
    <glyph glyph-name="screen" unicode="&#59061;" d="M864.075149 818.100816l-703.195553 0c-52.959166 0-95.891977-42.935881-95.891977-95.891977l0-511.406482c0-52.961212 42.932812-95.897094 95.891977-95.897094l319.640947 0 0-95.887884L352.664573 19.017378000000008c-17.653055 0-31.965016-14.309914-31.965016-31.962969 0-17.657148 14.31196-31.965016 31.965016-31.965016l319.632761 0c17.653055 0 31.960922 14.307867 31.960922 31.965016 0 17.653055-14.307867 31.962969-31.960922 31.962969L544.447505 19.017378000000008l0 95.887884 319.627644 0c52.960189 0 95.891977 42.935881 95.891977 95.897094L959.967126 722.2098619999999C959.967126 775.165957 917.034315 818.100816 864.075149 818.100816zM900.301212 213.29001300000004c0-20.596084-16.696264-37.292348-37.290301-37.292348L163.792948 175.99766599999998c-20.596084 0-37.292348 16.696264-37.292348 37.292348l0 61.443397 773.800611 0L900.301212 213.29001300000004zM900.301212 338.659349L126.500601 338.659349 126.500601 718.585311c0 20.596084 16.696264 37.292348 37.292348 37.292348l699.216939 0c20.594037 0 37.290301-16.696264 37.290301-37.292348L900.300188 338.659349z"  horiz-adv-x="1024" />

    
    <glyph glyph-name="jindutiao" unicode="&#58899;" d="M851.939249 783.655306 213.782991 783.655306c-63.815421 0-116.028597-52.213175-116.028597-116.028597l0 0c0-63.815421 52.213175-116.028597 116.028597-116.028597l638.156258 0c63.815421 0 116.028597 52.213175 116.028597 116.028597l0 0C967.967846 731.44213 915.75467 783.655306 851.939249 783.655306zM878.885971 667.626709c0-23.931039-19.579941-43.51098-43.51098-43.51098L230.439346 624.11573c-23.931039 0-43.51098 19.579941-43.51098 43.51098l0 0c0 23.931039 19.579941 43.51098 43.51098 43.51098l604.935646 0C859.306031 711.137689 878.885971 691.557748 878.885971 667.626709L878.885971 667.626709zM851.939249 478.167706 213.782991 478.167706c-63.815421 0-116.028597-52.213175-116.028597-116.028597l0 0c0-63.815421 52.213175-116.028597 116.028597-116.028597l638.156258 0c63.815421 0 116.028597 52.213175 116.028597 116.028597l0 0C967.967846 425.954531 915.75467 478.167706 851.939249 478.167706zM905.062144 348.323453c0-23.931039-19.579941-43.51098-43.51098-43.51098l-445.066565 0c-23.931039 0-43.51098 19.579941-43.51098 43.51098l0 0c0 23.931039 19.579941 43.51098 43.51098 43.51098l445.066565 0C885.482203 391.833409 905.062144 372.254491 905.062144 348.323453L905.062144 348.323453zM851.939249 172.680107 213.782991 172.680107c-63.815421 0-116.028597-52.213175-116.028597-116.028597l0 0c0-63.815421 52.213175-116.028597 116.028597-116.028597l638.156258 0c63.815421 0 116.028597 52.213175 116.028597 116.028597l0 0C967.967846 120.466931 915.75467 172.680107 851.939249 172.680107zM905.062144 56.65151c0-23.931039-19.579941-43.51098-43.51098-43.51098L619.11867 13.140531c-23.931039 0-43.51098 19.579941-43.51098 43.51098l0 0c0 23.931039 19.579941 43.51098 43.51098 43.51098l242.432495 0C885.482203 100.16249 905.062144 80.582549 905.062144 56.65151L905.062144 56.65151z"  horiz-adv-x="1024" />

    
    <glyph glyph-name="chart58" unicode="&#59007;" d="M512 896c-282.768 0-512-229.232-512-512s229.232-512 512-512 512 229.232 512 512-229.232 512-512 512zM512 384l-294.16-294.16c-75.28 75.28-121.84 179.28-121.84 294.16 0 229.744 186.256 416 416 416v-416z"  horiz-adv-x="1024" />

    
    <glyph glyph-name="write" unicode="&#58900;" d="M121.905 115.81h780.19v-97.524h-780.19v97.524zM823.296 597.504l-68.974 68.974-344.795-344.795-34.475-103.448 103.424 34.475zM875.008 649.24v0l17.237 17.237-68.949 68.949-34.499-34.475 68.974-68.974z"  horiz-adv-x="1024" />

    
    <glyph glyph-name="xiazai2" unicode="&#58898;" d="M700.052972 439.683616l-138.154667 0.089672 0.676881 400.060023L480.227073 839.59322 479.746893 439.533198l-134.684927 0 176.621198-309.950915L700.052972 439.683616M927.084475 239.255864l0-161.612655c0-45.323571-41.647006-87.864407-85.888723-87.864407L199.800045-10.221198c-44.240271 0-84.440949 42.540836-84.440949 87.864407l0 161.612655L35.664994 239.255864l0-181.890169C40.978802-33.988701 130.892655-89.465492 184.824768-89.420655l670.796655 0c64.72461-1.939525 154.425853 59.770938 154.425853 127.98409l0 200.692429L927.084475 239.255864z"  horiz-adv-x="1046" />

    
    <glyph glyph-name="shuaxin" unicode="&#59089;" d="M442.154496-17.408C469.853696-22.9376 497.143296-25.6 523.869696-25.6 700.151296-25.6 850.013696 89.3952 905.207296 249.0368 911.812096 268.1344 928.656896 281.6 948.573696 281.6L959.888896 281.6C990.711296 281.6 1013.085696 250.88 1003.306496 221.2352 936.183296 18.2784 746.896896-128 523.869696-128 225.680896-128-12.194304 133.4784 21.546496 442.4192 47.402496 679.0656 239.146496 870.3488 473.130496 893.4912 490.231296 895.1808 507.127296 896 523.869696 896 661.802496 896 786.679296 839.8848 877.764096 749.1072L877.764096 844.8C877.764096 873.0624 900.394496 896 928.298496 896 956.202496 896 978.832896 873.0624 978.832896 844.8L978.832896 640C978.832896 611.7376 956.202496 588.8 928.298496 588.8L726.109696 588.8C698.154496 588.8 675.524096 611.7376 675.524096 640 675.524096 668.2624 698.154496 691.2 726.109696 691.2L790.826496 691.2C719.556096 754.8416 626.116096 793.6 523.869696 793.6 274.167296 793.6 76.586496 563.2 127.479296 301.2608 158.455296 142.1312 285.021696 13.9264 442.154496-17.408Z"  horiz-adv-x="1024" />

    
    <glyph glyph-name="finish" unicode="&#58932;" d="M825.331241 831.577758c-2.103918 0-4.113691-0.124843-6.122441-0.220011l-0.438998 0L204.463742 831.357747l-0.438998 0c-2.00875 0.094144-4.018523 0.220011-6.122441 0.220011-73.624834 0-133.435035-59.841923-133.435035-133.436058l0.220011-14.127765-0.314155 0 0-601.307002 0.314155 0-0.094144-13.438057 0-1.224898c0-72.714092 59.151191-131.99115 131.960451-131.99115 2.228761 0 4.457522 0.12689 6.687306 0.220011l0.440022 0 612.326986 0 0.659009-0.094144c2.888793-0.345877 5.996574-0.440022 9.230222-0.440022 72.809259 0 131.959428 59.152215 131.959428 131.74044 0 0.344854 0 0.564865 0 0.784876 0 0.345877 0 0.659009 0 1.004887l-0.094144 13.438057 0.87902 0L958.641433 689.3515l0 0.564865c0.218988 2.668783 0.345877 5.337565 0.345877 8.006348C958.986287 771.640668 899.05022 831.577758 825.331241 831.577758L825.331241 831.577758zM717.579145 376.26380500000005L471.869001 130.522961c-5.242398-5.211698-12.119015-7.785314-18.900465-7.785314-6.782473 0-13.688767 2.573615-18.900465 7.785314L305.749566 258.84146499999997c-10.455119 10.455119-10.455119 27.346835 0 37.676088 10.455119 10.455119 27.346835 10.455119 37.706787 0l109.511159-109.511159 226.934522 226.934522c10.455119 10.455119 27.346835 10.455119 37.676088 0C728.033241 403.485797 728.033241 386.594081 717.579145 376.26380500000005L717.579145 376.26380500000005zM887.778502 679.555389L135.329175 679.555389l0 22.039969 0.533143 1.382487c0.408299 1.12973 0.62831 2.260483 0.62831 3.233648 0 32.244378 34.221406 58.522881 76.419484 58.522881 0.220011 0 0.659009 0.094144 1.067308 0.094144l0.62831 0.094144 593.144088 0 0.847298-0.094144c0.534166-0.094144 1.161453-0.094144 1.695618-0.094144 42.197054 0 76.54535-26.279526 76.54535-58.585303 0-0.910743 0.188288-1.789763 0.533143-2.762927l0.408299-1.224898L887.779525 679.555389 887.778502 679.555389z"  horiz-adv-x="1024" />

    
    <glyph glyph-name="shouquanbiaoshu" unicode="&#58906;" d="M184.502 892.574l397.896 0c0.119-44.034-0.19-88.068 0.161-132.103 1.72-46.366 24.058-96.021 68.172-116.078 14.805-6.622 31.259-7.853 47.274-7.662 47.076-0.02 94.141 0.08 141.215-0.05 0.08-84.527 0.07-169.065 0-253.602-46.086 4.691-93.539 0.631-137.085-15.806-58.018-21.517-108.704-62.18-142.225-114.217-99.692-0.19-199.384 0.05-299.075-0.119-20.076 0.15-39.203-10.573-50.917-26.628-13.004-17.095-15.595-40.964-8.073-60.891 9.352-23.508 33.561-40.532 59.049-40.252 84.646-0.13 169.294-0.02 253.941-0.05-5.952-67.723 10.683-137.624 50.095-193.403-120.358-0.02-240.718-0.02-361.086 0-16.235-0.2-32 4.961-46.354 12.214-28.7 14.626-53.597 36.991-70.603 64.4-10.943 16.877-17.336 36.782-17.106 56.978-0.039 229.403 0.011 458.807-0.02 688.221-1.42 38.902 18.176 75.955 45.304 102.783 18.975 18.356 42.513 33.8 69.432 36.26M251.233 507.962c-21.638-3.211-40.763-18.695-49.126-38.802-8.152-20.737-5.091-45.895 9.163-63.29 11.943-15.435 30.97-25.239 50.617-24.929 128.35-0.039 256.713-0.08 385.074 0.02 30.54-0.311 58.679 24.597 62.678 54.737 6.972 36.633-24.708 73.374-61.67 73.052-126.701 0.18-253.402 0.02-380.102 0.08-5.563 0.011-11.144 0.011-16.635-0.871L251.233 507.962zM646.94 892.574l10.173 0c26.859-4.801 46.915-25.079 67.431-41.474 35.612-30.88 72.923-60.81 101.563-98.581 11.303-14.205 14.855-32.46 13.114-50.227-50.396-0.11-100.792-0.08-151.179-0.011-8.471-0.19-16.185 4.551-21.176 11.153-12.415 14.715-18.875 34.021-19.877 53.086-0.119 42.023-0.02 84.036-0.05 126.05L646.94 892.574zM799.697 212.289c-48.412 0-87.798-39.385-87.798-87.798 0-48.409 39.385-87.794 87.798-87.794 48.409 0 87.798 39.385 87.798 87.794C887.498 172.903 848.109 212.289 799.697 212.289zM850.439 149.686c-1.092-3.31-2.479-7.257-4.131-11.857-1.652-4.586-3.442-9.36-5.379-14.326-1.923-4.965-3.947-10.063-6.057-15.296-2.111-5.233-4.183-10.237-6.2-15.018-2.573-5.88-6.662-10.289-12.264-13.227-5.609-2.942-11.492-4.319-17.643-4.134-6.158 0.184-12.031 2.024-17.64 5.515-5.598 3.484-9.781 8.728-12.542 15.706-1.276 3.307-2.747 7.26-4.409 11.847-1.652 4.6-3.397 9.284-5.237 14.062-1.829 4.774-3.581 9.465-5.233 14.051-1.655 4.597-3.122 8.731-4.412 12.406-1.471 3.491-1.147 6.707 0.963 9.642 2.114 2.942 4.774 5.104 7.997 6.474 3.209 1.377 6.52 1.885 9.92 1.523 3.401-0.369 5.835-2.024 7.309-4.962 0.918-2.024 2.017-4.694 3.3-7.997 1.29-3.307 2.757-6.982 4.412-11.026 1.655-4.04 3.355-8.178 5.101-12.396 1.742-4.228 3.63-8.182 5.65-11.854 1.836-3.675 4.458-5.65 7.855-5.922 3.397-0.275 6.019 1.972 7.851 6.746 1.839 4.412 3.362 8.317 4.552 11.711 1.203 3.404 2.208 6.572 3.036 9.51 0.821 2.942 1.659 5.741 2.479 8.408 0.828 2.664 1.697 5.553 2.615 8.686 1.652 4.59 4.225 7.438 7.716 8.536 3.491 1.102 6.989 1.012 10.473-0.275 3.498-1.28 6.297-3.446 8.408-6.474C851.04 156.717 851.544 153.355 850.439 149.686zM929.258 32.42c18.533 26.005 29.483 57.776 29.483 92.071 0 87.697-71.344 159.04-159.04 159.04s-159.04-71.347-159.04-159.04c0-34.382 11.002-66.222 29.625-92.266l-69.216-105.712 85.76 6.506 29.775-61.017 51.152 96.671c10.324-2.111 21.005-3.223 31.944-3.223 11.023 0 21.781 1.13 32.177 3.275l51.18-96.723 29.775 61.017 85.76-6.506L929.258 32.42zM691.037 124.491c0 59.914 48.746 108.66 108.66 108.66s108.66-48.746 108.66-108.66c0-59.911-48.749-108.657-108.66-108.657C739.783 15.834 691.037 64.58 691.037 124.491z"  horiz-adv-x="1095" />

    
    <glyph glyph-name="rili" unicode="&#58944;" d="M800 768l-64 0L736 800C736 817.664 721.664 832 704 832s-32-14.336-32-32L672 768l-320 0L352 800C352 817.664 337.664 832 320 832S288 817.664 288 800L288 768l-64 0C135.744 768 64 696.256 64 608l0-512C64 7.744 135.744-64 224-64l576 0c88.256 0 160 71.744 160 160l0 512C960 696.256 888.256 768 800 768zM896 96c0-52.928-43.072-96-96-96l-576 0C171.072 0 128 43.072 128 96l0 512C128 660.928 171.072 704 224 704l64 0 0-96C288 590.336 302.336 576 320 576s32 14.336 32 32L352 704l320 0 0-96C672 590.336 686.336 576 704 576s32 14.336 32 32L736 704l64 0C852.928 704 896 660.928 896 608L896 96zM352 448l-64 0C270.336 448 256 433.664 256 416S270.336 384 288 384l64 0C369.664 384 384 398.336 384 416S369.664 448 352 448zM544 448l-64 0C462.336 448 448 433.664 448 416S462.336 384 480 384l64 0C561.664 384 576 398.336 576 416S561.664 448 544 448zM736 448l-64 0C654.336 448 640 433.664 640 416S654.336 384 672 384l64 0C753.664 384 768 398.336 768 416S753.664 448 736 448zM352 256l-64 0C270.336 256 256 241.664 256 224S270.336 192 288 192l64 0C369.664 192 384 206.336 384 224S369.664 256 352 256zM544 256l-64 0C462.336 256 448 241.664 448 224S462.336 192 480 192l64 0C561.664 192 576 206.336 576 224S561.664 256 544 256zM736 256l-64 0c-17.664 0-32-14.336-32-32s14.336-32 32-32l64 0c17.664 0 32 14.336 32 32S753.664 256 736 256z"  horiz-adv-x="1024" />

    
    <glyph glyph-name="zhunbeijieduan" unicode="&#60419;" d="M918.190139 764.840798L140.462079 764.840798c-18.102287 0-32.283264 12.388145-32.283264 28.204365L108.178815 844.537931c0 15.836687 14.179954 28.242228 32.283264 28.242228l777.72806 0c18.102287 0 32.283264-12.405541 32.283264-28.242228l0-51.493791C950.473403 777.228943 936.293449 764.840798 918.190139 764.840798zM138.878001 795.701666c0.423649-0.093121 0.952698-0.161682 1.584078-0.161682l777.72806 0c0.630357 0 1.161453 0.068562 1.584078 0.161682L919.774217 841.919291c-0.422625 0.093121-0.952698 0.161682-1.584078 0.161682L140.462079 842.080973c-0.63138 0-1.161453-0.068562-1.584078-0.161682L138.878001 795.701666zM918.190139-104.78015900000003L140.462079-104.78015900000003c-18.102287 0-32.283264 12.729929-32.283264 28.982078l0 54.450123c0 16.228613 14.179954 28.941146 32.283264 28.941146l777.72806 0c18.102287 0 32.283264-12.712533 32.283264-28.941146l0-54.450123C950.473403-92.04920700000002 936.293449-104.78015900000003 918.190139-104.78015900000003zM138.878001-73.88449800000001c0.396019-0.107447 0.926092-0.195451 1.584078-0.195451l777.72806 0c0.657986 0 1.187035 0.088004 1.584078 0.195451l0 50.584072c-0.398066 0.107447-0.927115 0.195451-1.584078 0.195451L140.462079-23.104974999999968c-0.655939 0-1.186012-0.088004-1.584078-0.195451L138.878001-73.88449800000001zM882.671181 30.48557100000005L175.981037 30.48557100000005l0.913812 16.213263c9.80225 174.031639 142.31631 271.848455 240.144382 337.302189-97.828073 65.452711-230.342132 163.270551-240.144382 337.301166l-0.913812 16.213263 706.690144 0-0.913812-16.213263c-9.803273-174.031639-142.31631-271.848455-240.144382-337.301166 97.828073-65.452711 230.341109-163.269527 240.144382-337.302189L882.671181 30.48557100000005zM208.878285 61.18475699999999l640.895649 0c-17.307178 159.494551-152.658865 249.221108-243.213277 309.259506l-20.444635 13.555737 20.445658 13.556761c90.554412 60.038398 225.905076 149.764955 243.212254 309.258483L208.878285 706.815243C226.185462 547.320693 361.536127 457.595158 452.090539 397.556761l20.445658-13.556761-20.445658-13.556761C361.536127 310.40586499999995 226.185462 220.679307 208.878285 61.18475699999999z"  horiz-adv-x="1024" />

    
    <glyph glyph-name="yingjian" unicode="&#58945;" d="M922.93214 561.515996c-22.535249 52.895721-54.801117 100.395548-95.890954 141.184533-41.088814 40.781822-88.941682 72.807213-142.236492 95.179756C629.613698 821.051007 571.005882 832.797539 510.60421 832.797539c-60.398602 0-119.006418-11.746532-174.194344-34.918277-53.292764-22.372543-101.145631-54.398958-142.234445-95.179756-41.09086-40.788985-73.355705-88.288812-95.89607-141.184533-23.344684-54.778604-35.178197-112.955608-35.178197-172.906002 0-70.982658 16.452717-138.816602 48.900733-201.614857 30.856775-59.731406 75.91397-112.743784 130.281205-153.310711 12.355399-9.207709 29.887704-6.742565 39.166021 5.51562 9.278317 12.258185 6.791683 29.6636-5.556553 38.874379-99.68435 74.368778-156.852374 187.55156-156.852374 310.536592 0 214.314087 175.653579 388.667044 391.56607 388.667044 215.914538 0 391.573233-174.352957 391.573233-388.667044 0-122.985032-57.173141-236.166791-156.857491-310.536592-12.348236-9.210779-14.83487-26.616194-5.554506-38.874379 5.495154-7.259334 13.885242-11.081383 22.37766-11.081383 5.849218 0 11.748578 1.810229 16.786315 5.566786 54.374398 40.566928 99.423407 93.579305 130.285299 153.310711 32.448016 62.798255 48.895617 130.631176 48.895617 201.614857C958.110337 448.559365 946.276824 506.736369 922.93214 561.515996L922.93214 561.515996zM790.298354 395.342326c0 74.154907-29.090549 143.873782-81.915661 196.309014-52.825113 52.430116-123.06485 81.306794-197.773366 81.306794-74.710562 0-144.948253-28.876678-197.777459-81.306794-52.823066-52.435233-81.913615-122.154108-81.913615-196.309014 0-38.331004 7.80271-75.474972 23.195282-110.400413 14.783705-33.546024 35.880185-63.562665 62.693878-89.216951 11.125385-10.640338 28.832675-10.313903 39.548738 0.723477 10.721179 11.040451 10.394744 28.613688-0.730641 39.254026-44.348044 42.428322-68.771293 99.123578-68.771293 159.63986 0 122.466216 100.374058 222.094284 223.75511 222.094284 123.374912 0 223.756133-99.628068 223.756133-222.094284 0-60.515259-24.426319-117.211539-68.77334-159.63986-11.125385-10.635221-11.45182-28.213575-0.730641-39.254026 5.487991-5.653767 12.808724-8.499581 20.140713-8.494465 6.982018 0 13.982456 2.579755 19.408025 7.770987 26.813692 25.653263 47.904033 55.669904 62.695924 89.216951C782.495644 319.87247 790.298354 357.012346 790.298354 395.342326L790.298354 395.342326zM563.370994 209.671603C550.647205 230.716918 531.415189 242.789884 510.60421 242.789884c-20.808932 0-40.040948-12.072967-52.759621-33.117258L347.588463 27.270343c-12.876262-21.298072-14.423501-43.74634-4.248767-61.584614 10.172687-17.839297 30.362518-28.070312 55.390541-28.070312l223.753063 0c25.024953 0 45.214784 10.231015 55.392588 28.070312 10.175757 17.839297 8.623401 40.286542-4.252861 61.584614L563.370994 209.671603 563.370994 209.671603zM622.4833-6.863059 398.730237-6.863059c-2.452865 0-4.307096 0.2415-5.605671 0.523933 0.426719 1.254573 1.169639 2.955308 2.433422 5.042853l110.252033 182.399213c2.082428 3.446495 3.834328 5.067412 4.79419 5.77554 0.961908-0.709151 2.718925-2.329045 4.801353-5.77554l110.252033-182.399213c1.263783-2.082428 2.007727-3.783163 2.436492-5.042853C626.78528-6.622582 624.936165-6.863059 622.4833-6.863059L622.4833-6.863059zM622.4833-6.863059"  horiz-adv-x="1024" />

    
    <glyph glyph-name="code" unicode="&#58904;" d="M377.263079 287.81527100000005c37.001223 0 67.102055-30.101076 67.102055-67.102055l0-220.804945c0-36.999026-30.100832-67.101933-67.102055-67.101933L124.619631-67.19366100000002c-37.000979 0-67.101933 30.102907-67.101933 67.101933l0 220.804945c0 37.000979 30.100954 67.102055 67.101933 67.102055L377.263079 287.81527100000005 377.263079 287.81527100000005zM377.263079 345.333341L124.619631 345.333341c-68.824101 0-124.618172-55.794071-124.618172-124.620125l0-220.804945c0-68.823979 55.794071-124.618049 124.618172-124.618049l252.643448 0c68.826054 0 124.620125 55.794071 124.620125 124.618049l0 220.804945C501.883204 289.539271 446.089133 345.333341 377.263079 345.333341L377.263079 345.333341M899.383105 835.1936000000001c36.999148 0 67.101933-30.102907 67.101933-67.101933l0-233.5287c0-36.999148-30.102785-67.101933-67.101933-67.101933l-211.421888 0c-37.001101 0-67.103886 30.102785-67.103886 67.101933l0 233.5287c0 36.999026 30.102785 67.101933 67.103886 67.101933L899.383105 835.1936000000001 899.383105 835.1936000000001zM899.383105 892.709839l-211.421888 0c-68.826054 0-124.620125-55.794193-124.620125-124.618172l0-233.5287c0-68.823979 55.794071-124.618172 124.620125-124.618172l211.421888 0c68.824345 0 124.618538 55.794193 124.618538 124.618172l0 233.5287C1024.001643 836.915646 968.20745 892.709839 899.383105 892.709839L899.383105 892.709839M383.880511 835.1936000000001c36.999148 0 67.101933-30.102907 67.101933-67.101933l0-233.5287c0-36.999148-30.102785-67.101933-67.101933-67.101933l-252.64357 0c-37.000979 0-67.103886 30.102785-67.103886 67.101933l0 233.5287c0 36.999026 30.102907 67.101933 67.103886 67.101933L383.880511 835.1936000000001 383.880511 835.1936000000001zM383.880511 892.709839l-252.64357 0c-68.825932 0-124.620125-55.794193-124.620125-124.618172l0-233.5287c0-68.823979 55.794193-124.618172 124.620125-124.618172l252.64357 0c68.823979 0 124.618172 55.794193 124.618172 124.618172l0 233.5287C508.498683 836.915646 452.70449 892.709839 383.880511 892.709839L383.880511 892.709839M607.585603 189.44795599999998L607.585603 189.44795599999998c-15.883302 0-28.759157 12.874024-28.759157 28.757204l0 52.790653c0 15.88318 12.875855 28.759035 28.759157 28.759035l0 0c15.881227 0 28.757082-12.875855 28.757082-28.759035l0-52.790653C636.342684 202.32198000000005 623.466829 189.44795599999998 607.585603 189.44795599999998L607.585603 189.44795599999998zM607.585603-76.79498000000001L607.585603-76.79498000000001c-15.883302 0-28.759157 12.875855-28.759157 28.757204l0 152.027597c0 15.881349 12.875855 28.757204 28.759157 28.757204l0 0c15.881227 0 28.757082-12.875855 28.757082-28.757204l0-152.027597C636.342684-63.91912500000001 623.466829-76.79498000000001 607.585603-76.79498000000001L607.585603-76.79498000000001zM767.531413 90.98908800000004L767.531413 90.98908800000004c-15.881349 0-28.757082 12.875977-28.757082 28.757204l0 151.249521c0 15.88318 12.875733 28.759035 28.757082 28.759035l0 0c15.883302 0 28.759157-12.875855 28.759157-28.759035l0-151.249521C796.29057 103.86506499999996 783.414715 90.98908800000004 767.531413 90.98908800000004L767.531413 90.98908800000004zM927.479176 156.38069299999995L927.479176 156.38069299999995c-15.88318 0-28.759035 12.875855-28.759035 28.759157l0 85.855962c0 15.88318 12.875855 28.759035 28.759035 28.759035l0 0c15.883302 0 28.759157-12.875855 28.759157-28.759035l0-85.855962C956.238333 169.25654899999995 943.362478 156.38069299999995 927.479176 156.38069299999995L927.479176 156.38069299999995zM927.479176-76.79498000000001L927.479176-76.79498000000001c-15.88318 0-28.759035 12.875855-28.759035 28.757204l0 120.469856c0 15.883302 12.875855 28.759157 28.759035 28.759157l0 0c15.883302 0 28.759157-12.875855 28.759157-28.759157l0-120.469856C956.238333-63.91912500000001 943.362478-76.79498000000001 927.479176-76.79498000000001L927.479176-76.79498000000001zM767.531413-76.79498000000001L767.531413-76.79498000000001c-15.881349 0-28.757082 12.875855-28.757082 28.757204l0 87.367437c0 15.88318 12.875733 28.757082 28.757082 28.757082l0 0c15.883302 0 28.759157-12.873902 28.759157-28.757082l0-87.367437C796.29057-63.91912500000001 783.414715-76.79498000000001 767.531413-76.79498000000001L767.531413-76.79498000000001z"  horiz-adv-x="1025" />

    
    <glyph glyph-name="completed" unicode="&#59091;" d="M153.504 421.575l208.895-166.499 520.17 479.423s34.918 31.874 65.372 6.991c9.073-7.508 19.545-28.719-4.055-61.935l-543.063-636.496s-41.666-56.993-91.090 0.625l-234.337 316.617s-27.823 42.848 6.965 68.559c11.746 8.613 38.439 22.039 71.144-7.286z"  horiz-adv-x="1024" />

    
    <glyph glyph-name="baocun1" unicode="&#58940;" d="M819.823 812.306H206.991c-67.703 0-122.588-54.885-122.588-122.588v-612.833c0-67.703 54.885-122.588 122.588-122.588h612.833c67.703 0 122.588 54.885 122.588 122.588V689.718c-0.001 67.703-54.885 122.588-122.589 122.588z m-124.435-63.313v-241.142H331.772V748.993h363.616z m185.787-672.274c0.027-33.765-27.323-61.158-61.088-61.185H207.133c-16.389 0-31.864 6.297-43.454 17.887s-18.039 26.91-18.039 43.298v612.94c0.061 33.923 27.57 61.395 61.493 61.41h61.327v-245.294c-0.05-33.771 27.286-61.187 61.057-61.237h367.888c33.853 0 61.299 27.387 61.299 61.237V751.069h61.206c33.872-0.036 61.301-27.524 61.265-61.396V76.719zM574.817 566.064c17.483 0 31.656 14.173 31.656 31.656v61.292c0 17.483-14.173 31.656-31.656 31.656s-31.656-14.173-31.656-31.656v-61.292c0-17.483 14.173-31.656 31.656-31.656z"  horiz-adv-x="1024" />

    
    <glyph glyph-name="daoru" unicode="&#58922;" d="M1108.183078 730.336595c-211.016327 106.138171-352.649993 15.506558-501.076699-244.808327l132.234944-77.296774c9.471048-5.517799 15.213442-15.715926 13.955331-26.473635-0.416833-3.483123-1.497933-6.895822-3.245204-9.887881-3.319435-5.898468-9.054216-10.390364-16.205086-12.139539l-377.422037-145.782959c-14.29603-3.65252-29.338171 5.15426-33.413234 19.438869l-64.987836 404.510454c-2.982543 10.470305 0.662364 21.612491 9.139866 28.000119 8.561249 6.437115 20.105041 6.568446 29.597026 0.999256l134.72452-78.709055C582.751167 853.357442 793.278335 1026.982543 1108.192595 759.728059v-29.425724l-0.009517 0.03426zM937.95545-126.966483H171.993933c-94.002439 0-170.206691 76.221383-170.206691 170.212401V724.091717C1.787242 818.094156 77.993398 894.298409 171.993933 894.298409h170.212402v-79.78635H171.993933c-47.044996 0-85.110007-38.110691-85.110007-85.110007v-691.495019c0-47.031673 38.070721-85.110007 85.110007-85.110007h765.967227c46.963152 0 85.110007 38.070721 85.110007 85.110007V468.765502h85.110008v-425.529101c-0.001903-94.000535-76.227093-170.206691-170.229532-170.206691l0.003807 0.003807z"  horiz-adv-x="1109" />

    
    <glyph glyph-name="stage" unicode="&#59023;" d="M102.4 384h204.8v-68.267h-204.8zM341.333 588.8h204.8v-68.267h-204.8zM580.267 793.6h341.333v-68.267h-341.333zM887.467 691.2h-273.067c-20.48 0-34.133-13.653-34.133-34.133v-170.667h-204.8c-20.48 0-34.133-13.653-34.133-34.133v-170.667h-204.8c-20.48 0-34.133-13.653-34.133-34.133v-204.8c0-20.48 13.653-34.133 34.133-34.133h750.933c20.48 0 34.133 13.653 34.133 34.133v614.4c0 20.48-13.653 34.133-34.133 34.133zM375.467 110.933h-204.8v68.267h204.8v-68.267zM614.4 315.733h-204.8v68.267h204.8v-68.267zM853.333 520.533h-204.8v68.267h204.8v-68.267z"  horiz-adv-x="1024" />

    
    <glyph glyph-name="bianji" unicode="&#58918;" d="M289.792 256.512v-93.696h93.696L655.36 435.712l-94.208 93.184zM670.208 597.504c-9.728 9.728-24.576 9.728-34.816 0l-44.544-44.032 93.696-93.184L727.04 506.88c9.728 9.728 9.728 24.576 0 34.304l-56.832 56.32zM512 834.56c-250.368 0-453.12-201.728-453.12-450.56s203.776-450.56 453.12-450.56c250.368 0 453.12 201.728 453.12 450.56 1.024 248.832-202.752 450.56-453.12 450.56z m0-838.656c-215.04 0-389.632 174.08-389.632 387.584 0 214.016 175.104 388.096 389.632 388.096 214.528 0 390.656-174.08 390.656-388.096 0-213.504-175.616-387.584-390.656-387.584z"  horiz-adv-x="1024" />

    
    <glyph glyph-name="duigou" unicode="&#58929;" d="M193.183326 340.633307c-6.559393 7.15291-6.855128 14.305821-0.895393 21.458731l18.776645 24.139793c5.364171 7.751544 12.218276 8.94165 20.563338 3.577478L397.92643 276.260184c15.498996-10.129708 30.699186-9.235338 45.598524 2.682085l442.571744 364.788194c7.150864 5.961782 14.010085 5.661953 20.563338-0.893347l9.83602-9.834995c6.553253-6.556323 6.553253-13.411451 0-20.564362L441.737238 130.525008c-13.710256-13.706163-27.121707-14.011108-40.23333-0.89437L193.183326 340.633307z"  horiz-adv-x="1024" />

    
    <glyph glyph-name="zijin1" unicode="&#58968;" d="M636.928 627.712c-169.472 0-307.2-136.704-307.2-305.152 0-168.448 137.216-305.152 307.2-305.152s307.2 136.704 307.2 305.152c-0.512 168.448-137.728 305.152-307.2 305.152z m107.008-372.224c-3.072-1.536-6.656-2.048-9.728-2.048h-77.312v-78.848c0-8.192-4.096-14.336-11.776-18.432-7.168-3.072-14.336-2.048-20.992 3.072-5.12 4.608-7.168 9.728-7.168 16.384v77.824H537.6c-8.192 0-15.872 5.12-18.432 13.312-3.072 7.68-0.512 16.384 5.632 21.504 4.096 3.584 8.704 4.608 13.824 4.608h72.704c1.536-0.512 3.072-0.512 4.608-0.512v39.936h-77.312c-13.312 0-22.016 9.728-20.992 22.016 1.024 10.24 9.728 17.408 20.992 17.408h69.632c-1.536 1.536-2.56 2.56-3.072 3.584L524.8 455.68c-7.168 7.168-8.704 16.896-4.096 25.088 6.144 10.24 19.456 12.8 28.672 5.632 1.536-1.024 3.072-2.56 4.608-4.096l78.848-78.848c1.024-1.024 1.536-2.56 2.048-4.096 0.512 0 1.024 0.512 2.048 0.512 0.512 1.024 2.048 2.56 3.072 3.584 26.624 26.624 53.248 53.248 79.872 80.384 5.632 5.632 12.288 8.192 19.968 6.144 14.848-3.584 19.456-22.016 8.704-33.28-8.192-8.192-15.872-16.384-24.576-24.576l-56.32-56.32c-1.024-1.024-2.56-2.048-3.584-2.56l0.512-1.536h68.608c10.752 0 18.432-6.144 20.992-15.872 2.048-10.752-5.12-21.504-15.872-23.04-2.048-0.512-4.608-0.512-6.656-0.512H655.36v-39.936h79.36c9.728 0 16.896-6.656 18.944-15.872 3.072-8.192-1.536-17.408-9.728-20.992zM182.784 365.568c-7.68 0-13.824-6.144-13.824-13.824v-37.888c0-7.68 6.144-13.824 13.824-13.824h90.624c0 4.608-0.512 9.216-0.512 13.824 0 16.896 1.536 34.304 4.096 52.224H182.784zM187.904 617.984v-37.888c0-7.68 6.144-13.824 13.824-13.824h172.544c25.088 25.6 53.76 48.128 84.992 66.048H201.728c-7.68 0-13.824-6.656-13.824-14.336zM144.384 699.392h419.328c7.68 0 13.824 6.144 13.824 13.824v37.888c0 7.68-6.144 13.824-13.824 13.824H144.384c-7.68 0-13.824-6.144-13.824-13.824v-37.888c0-7.68 6.144-13.824 13.824-13.824zM73.216 484.864v-37.888c0-7.68 6.144-13.824 13.824-13.824h205.312c7.68 23.04 17.92 45.056 30.72 66.048h-235.52c-7.68-0.512-14.336-6.656-14.336-14.336zM125.44 231.936c-7.68 0-13.824-6.144-13.824-13.824v-37.888c0-7.68 6.144-13.824 13.824-13.824h178.688c-9.216 21.504-16.896 43.52-22.016 66.048H125.44z"  horiz-adv-x="1024" />

    
    <glyph glyph-name="pingtai1" unicode="&#58907;" d="M956.349 350.127H589.388c-30.082 0-54.172-24.089-54.172-54.17V-70.88c0-30.081 24.09-54.171 54.172-54.171h366.837c30.081 0 54.17 24.09 54.17 54.171V295.957c0.125 30.081-23.966 54.17-54.046 54.17z m0-421.007H589.388V295.957h366.837V-70.88h0.124zM421.009 350.127H54.17c-30.081 0-54.17-24.089-54.17-54.17V-70.88c0-30.081 24.089-54.171 54.17-54.171h366.839c30.08 0 54.17 24.09 54.17 54.171V295.957c0 30.081-24.09 54.17-54.17 54.17z m0-421.007H54.17V295.957h366.839V-70.88zM1010.52 668.911L812.062 879.478c-18.1 18.099-48.057 18.099-66.154 0L535.341 687.01c-18.098-18.099-18.098-48.18 0-66.152l198.46-210.567c18.097-18.099 48.179-18.099 66.152 0l210.566 198.459c17.974 18.097 17.974 42.062 0.001 60.161zM769.872 452.354L577.403 650.812 775.862 837.29l192.47-204.451-198.46-180.485zM421.009 885.47H54.17C24.089 885.47 0 861.379 0 825.307v-366.838c0-30.081 24.089-54.17 54.17-54.17h366.839c30.08 0 54.17 24.089 54.17 54.17V825.307c0 36.072-24.09 60.163-54.17 60.163z m0-421.01H54.17V825.307h366.839V464.46z"  horiz-adv-x="1024" />

    
    <glyph glyph-name="tuichu" unicode="&#59102;" d="M518.865716-115.139169c-253.392587 0-459.518355 206.149507-459.518356 459.537966 0 168.329757 91.885196 323.013233 239.790688 403.676617 22.264549 12.186335 50.186192 3.929311 62.349305-18.334722 12.165693-22.287772 3.951502-50.208383-18.358461-62.372528-118.326767-64.546705-191.851954-188.30453-191.851954-322.966271 0-202.691362 164.918058-367.60684 367.586713-367.60684 202.712005 0 367.631095 164.915477 367.631095 367.60684 0 132.823005-72.044083 255.769577-188.035661 320.835959-22.128308 12.411339-30.030797 40.442388-17.59675 62.570696 12.391213 22.15566 40.399554 30.029764 62.571212 17.594686 144.944833-81.314141 234.989228-234.964973 234.989228-401.007018 0.003096-253.391038-206.17015-459.537449-459.559124-459.537449l0.002065 0.002064zM520.93152 261.678381c-25.364546 0-45.966337 20.581665-45.966337 45.964789V826.682283c0 25.384156 20.601791 45.965821 45.966337 45.965821 25.360417 0 45.962724-20.580116 45.962724-45.965821v-519.039113c0.00258-25.383124-20.602823-45.964789-45.962724-45.964789z"  horiz-adv-x="1024" />

    
    <glyph glyph-name="yonghuming" unicode="&#59245;" d="M213.6-112.576c0.288 0.064 0.448 0.064-0.352 0.064-0.768 0-0.64-0.064-0.32-0.064-0.16-0.064-0.032-0.064 0.32-0.064 0.384 0 0.544 0 0.352 0.064zM1020-81.472c2.368-4.416 4-9.184 4-14.528 0-17.664-14.624-32-32.64-32s-32.672 14.336-32.672 32h-0.8C913.024 105.28 730.56 256 512 256c-218.592 0-401.12-150.72-445.92-352h-0.832c0-17.664-14.656-32-32.64-32S0-113.664 0-96c0 5.344 1.6 10.112 4 14.528 40.352 179.328 175.168 323.904 351.904 378.08C254.976 351.072 185.792 455.072 185.792 576 185.792 752.736 331.84 896 512 896c180.128 0 326.176-143.264 326.176-320 0-120.928-69.184-224.928-170.08-279.36C844.832 242.432 979.552 97.888 1020-81.472zM772.928 576c0 141.376-116.832 256-260.928 256-144.16 0-260.96-114.624-260.96-256S367.872 320.032 512 320.032c144.096 0 260.928 114.592 260.928 255.968z"  horiz-adv-x="1024" />

    
    <glyph glyph-name="tiaoyan" unicode="&#58884;" d="M779.492 829.764H244.508c-98.016 0-178.272-80.255-178.272-178.272v-534.984c0-98.016 80.255-178.272 178.272-178.272h534.984c98.017 0 178.272 80.255 178.272 178.272V651.492c0 98.017-80.256 178.272-178.272 178.272zM401.262 141.61h-110.65V377.597h110.65V141.61z m162.734 0H453.344V626.391h110.652v-484.782z m169.391 0h-110.65V485.345h110.65V141.61z"  horiz-adv-x="1024" />

    
    <glyph glyph-name="wenjian" unicode="&#58939;" d="M711.68 473.6h-399.36c-20.48 0-38.4-17.92-38.4-38.4s17.92-38.4 38.4-38.4h399.36c20.48 0 38.4 17.92 38.4 38.4s-17.92 38.4-38.4 38.4zM711.68 322.56h-399.36c-20.48 0-38.4-17.92-38.4-38.4s17.92-38.4 38.4-38.4h399.36c20.48 0 38.4 17.92 38.4 38.4s-17.92 38.4-38.4 38.4zM711.68 171.52h-399.36c-20.48 0-38.4-17.92-38.4-38.4s17.92-38.4 38.4-38.4h399.36c20.48 0 38.4 17.92 38.4 38.4s-17.92 38.4-38.4 38.4zM880.64 596.48l-232.96 232.96c-7.68 10.24-23.040 15.36-38.4 15.36h-371.2c-61.44-0-112.64-51.2-112.64-112.64v-696.32c0-61.44 51.2-112.64 112.64-112.64h547.84c61.44 0 112.64 51.2 112.64 112.64v519.68c0 15.36-5.12 30.72-17.92 40.96zM650.24 719.36l120.32-120.32-81.92 2.56c-10.24 0-20.48 5.12-28.16 12.8-7.68 7.68-10.24 17.92-10.24 28.16v76.8zM785.92 0h-547.84c-20.48 0-35.84 15.36-35.84 35.84v696.32c0 20.48 15.36 35.84 35.84 35.84h335.36l-2.56-125.44c0-30.72 10.24-61.44 33.28-81.92 20.48-23.040 51.2-35.84 81.92-35.84l135.68-5.12v-483.84c0-20.48-15.36-35.84-35.84-35.84z"  horiz-adv-x="1024" />

    
    <glyph glyph-name="yujing" unicode="&#58885;" d="M877.684 895.992c59.527 0.833 47.152-59.872 47.154-116.811 0-23.913 4.057-54.174-5.355-69.66-6.703-11.022-17.93-17.842-33.224-20.361-8.94-1.472-17.274 2.157-22.505 4.823-32.76 16.687-23.579 65.538-23.579 113.062 0 19.902-4.201 46.652 2.144 62.157 6.95 16.983 18.152 19.634 35.365 26.791zM573.329 793.648c13.831 0.075 23.337-3.632 31.077-9.645 19.826-24.289 39.655-48.586 59.477-72.875 9.909-12.725 24.658-24.569 31.080-40.188 9.007-21.9-4.198-43.275-17.683-51.439-14.226-8.612-36.215-6.104-48.226 2.68-14.276 10.44-25.555 29.954-36.435 43.938l-32.686 40.188c-15.082 19.38-39.611 42.068-16.076 72.338 7.426 9.55 16.942 10.015 29.472 15.003zM1182.575 779.18c30.676 0.553 60.009-22.961 46.619-56.263-6.49-16.14-21.904-26.406-32.15-39.116l-41.259-46.081c-7.301-9.058-15.456-20.845-25.184-27.328-10.904-7.267-32.258-9.6-45.012-2.144-16.647 9.734-29.658 36.051-16.076 58.406 13.574 15.182 27.15 30.367 40.725 45.546l32.15 35.902c7.012 8.708 14.48 19.194 24.112 25.185 5.359 1.964 10.72 3.928 16.075 5.893zM1138.635 27.939h-524.584v240.591c-0.001 48.488-3.142 102.097 8.039 139.852 20.957 70.777 61.547 120.007 118.955 154.321 25.084 14.993 53.372 25.563 86.806 32.686l33.224 3.215c10.179 0.181 20.362 0.359 30.543 0.537 22.727-3.471 43.357-4.702 62.693-10.717 88.674-27.587 149.75-90.173 176.289-180.040 11.119-37.65 8.036-90.957 8.036-139.318-0.003-80.37-0.003-160.761-0.003-241.127zM401.86 519.837c15.278 0.33 26.292-3.176 38.581-5.895 23.574-4.645 47.156-9.289 70.73-13.932 17.774-4.163 36.628-4.401 47.69-15.003 11.373-10.896 19.42-34.043 8.573-51.976-5.902-9.758-16.179-17.523-28.934-20.362-13.324-2.965-27.262 2.292-38.045 4.821l-70.731 13.932c-18.138 4.25-37.425 4.828-49.833 14.468-17.306 13.446-19.911 48.602-1.608 63.229 7.056 5.638 14.204 6.713 23.577 10.718zM1342.255 498.401c35.576 0.377 59.662-36.985 37.511-66.98-12.062-16.323-33.047-15.756-57.334-20.361l-71.804-10.717c-10.68-2.062-24.677-6.373-36.974-3.752-13.929 2.969-25.898 11.869-31.076 23.577-10.438 23.597 3.132 48.099 20.361 55.728 9.95 4.406 22.663 4.042 34.83 6.43l71.266 11.253 33.22 4.823zM562.612-7.965h513.332c65.222 0.005 122.257 11.697 147.892-31.077 4.814-8.031 10.012-21.149 7.502-35.901-11.071-65.078-80.090-51.98-153.787-51.977h-475.823c-18.259-0.001-40.457-1.985-54.119 3.216-29.324 11.16-53.753 50.269-31.614 86.806 6.317 10.429 17.125 19.791 28.935 24.648 5.891 1.429 11.786 2.859 17.68 4.285z"  horiz-adv-x="1719" />

    
    <glyph glyph-name="jianlixiangmu" unicode="&#58917;" d="M870.4 179.2h-51.2V588.8a102.4 102.4 0 0 1-102.4 102.4H307.2v51.2a51.2 51.2 0 0 0 51.2 51.2h512a51.2 51.2 0 0 0 51.2-51.2v-512a51.2 51.2 0 0 0-51.2-51.2z m-153.6 0H358.4a51.2 51.2 0 0 0-51.2 51.2V588.8h358.4a51.2 51.2 0 0 0 51.2-51.2v-358.4z m-51.2-204.8h-512a51.2 51.2 0 0 0-51.2 51.2v512a51.2 51.2 0 0 0 51.2 51.2h51.2v-409.6a102.4 102.4 0 0 1 102.4-102.4h409.6v-51.2a51.2 51.2 0 0 0-51.2-51.2z m256 921.6H307.2a102.4 102.4 0 0 1-102.4-102.4v-102.4H102.4A102.4 102.4 0 0 1 0 588.8v-614.4A102.4 102.4 0 0 1 102.4-128h614.4a102.4 102.4 0 0 1 102.4 102.4v102.4h102.4a102.4 102.4 0 0 1 102.4 102.4V793.6A102.4 102.4 0 0 1 921.6 896z"  horiz-adv-x="1024" />

    
    <glyph glyph-name="cn_lichengbei" unicode="&#58931;" d="M780.357 235.685c67.274 68.297 108.88 162.079 108.88 265.647 0 208.87-168.888 378.202-377.237 378.202S134.762 710.202 134.762 501.332c0-103.568 41.61-197.35 108.881-265.647L136.42 2.696l0.142-0.196a20.562 20.562 0 0 1-1.8-8.392c0-11.604 9.374-21.013 20.958-21.013 0.554 0 1.023 0.277 1.555 0.319l0.246-0.319 124.254 25.28 82.826-111.776c0.124-0.255 0.327-0.45 0.451-0.706l2.741-4.506 0.248 0.043c3.847-4.639 9.414-7.757 15.902-7.757 9.23 0 16.843 6.095 19.627 14.415l98.566 235.545c3.315-0.094 6.528-0.503 9.864-0.503 3.336 0 6.55 0.409 9.864 0.503l89.316-235.597c2.804-8.29 10.397-14.363 19.608-14.363 7.696 0 14.1 4.34 17.764 10.504h0.082l0.901 1.477c0.164 0.348 0.451 0.617 0.614 0.986l72.39 111.736 142.202-24.684 0.756 0.953c0.941-0.134 1.8-0.565 2.784-0.565 11.583 0 20.958 9.41 20.958 21.012 0 3.213-0.838 6.168-2.13 8.886L780.358 235.685zM739.79 532.92l-0.778-0.79-98.81-96.56 22.143-129.432 2.211-13.072s-0.45-3.026-2.17-6.524c-0.163-0.329-0.326-0.635-0.51-0.964-0.778-1.396-1.863-2.7-3.173-4.045-0.533-0.54-0.984-1.097-1.555-1.579-0.185-0.144-0.267-0.328-0.451-0.46-0.778-0.576-1.68-1.036-2.62-1.439-2.926-1.683-6.18-2.912-9.845-2.912-1.842 0-3.5 0.606-5.178 1.047a43.66 43.66 0 0 0-2.578 0.235l-124.602 65.69-118.765-62.62-5.834-3.069c-2.006-0.657-4.072-1.282-6.322-1.282-4.973 0-9.353 1.98-12.936 4.885-0.307 0.193-0.674 0.235-0.962 0.45-0.224 0.164-0.348 0.4-0.553 0.575-0.224 0.215-0.43 0.44-0.654 0.676-1.536 1.478-2.722 3.213-3.5 5.181-1.391 2.81-2.353 5.879-2.353 9.242 0 1.161 0.468 2.146 0.653 3.253 0.185 3.94 0.82 6.864 0.82 6.864l22.104 129.3-96.049 93.874-4.83 4.72c-2.54 3.476-4.34 7.54-4.34 12.186 0 8.278 4.892 15.287 11.83 18.714l0.266 1.045 142.12 20.683 59.742 121.317 1.779 3.63c3.623 6.218 10.09 10.59 17.784 10.59 7.716 0 14.164-4.373 17.807-10.59l1.8-3.63 59.721-121.317 130.658-19.02 11.952-1.744c6.958-3.427 11.83-10.422 11.83-18.692 0.001-5.614-2.27-10.65-5.852-14.416z"  horiz-adv-x="1024" />

    
    <glyph glyph-name="zichan1" unicode="&#58883;" d="M378.507 645.236h260.925s19.715 57.653 142.595 148.676c-23.52 12.142-57.362-6.627-71.307 4.55-14.928 11.979-12.143 54.613-48.551 59.165s-74.329-45.511-74.329-45.511-33.35-30.347-48.533 16.675-71.307 51.573-89.511 51.573-63.333-13.653-71.307-71.689c-3.422-18.205-22.755-25.031-38.685-15.93s-37.537 15.93-70.542 12.525c38.703-42.469 136.551-135.769 109.245-160.035zM874.578 93.787s1.51 213.902 0 229.067c-5.316 109.227-223.77 254.862-223.77 254.862h-267.75c-96.338-54.613-216.178-175.218-229.067-257.138-1.129-4.259-9.102-180.533-12.143-240.444s-42.47-116.053-42.47-116.053 98.613-70.543 422.489-72.818 370.151 56.125 402.773 75.093c-44-1.511-50.062 127.431-50.062 127.431zM645.13 132.743c-4.388-28.217-20.080-89.893-105.058-96.046v-54.031h-60.039v53.594c-35.881 5.042-68.941 14.326-102.928 25.723l18.004 70.543c26.943-10.523 62.442-21.773 93.698-25.395 42.398-4.934 70.961 3.787 73.619 34.515 6.062 53.849-182.81 63.333-181.025 160.491-2.567 71.379 49.188 102.473 100.779 106.769v56.16h60.039v-53.594c34.097-0.418 61.075-7.773 87.363-19.26l-16.64-66.483c-26.414 9.939-53.429 19.279-85.742 19.279-20.935 0-64.881-0.074-66.391-28.891 0-49.68 83.139-52.246 110.737-63.97 20.116-8.557 34.115-16.912 48.442-30.912 25.013-24.43 30.202-55.905 25.141-88.491z"  horiz-adv-x="1024" />

    
    <glyph glyph-name="iconfont-edit" unicode="&#58893;" d="M839.803171-60.815746h-659.045536c-41.590252 0-75.182379 33.592127-75.182379 75.182379v742.226041C105.575256 798.182926 139.167383 831.775053 180.757635 831.775053H604.658283c20.475201 0 36.791377-16.316176 36.791377-36.791377S625.133484 758.192299 604.658283 758.192299H180.757635c-0.63985 0-1.599625-0.959775-1.599625-1.599625v-742.226041c0-0.63985 0.959775-1.599625 1.599625-1.599625h659.045536c0.63985 0 1.599625 0.959775 1.599625 1.599625V496.173709c0 20.475201 16.316176 36.791377 36.791377 36.791377s36.791377-16.316176 36.791377-36.791377v-481.807076c0-41.590252-33.592127-75.182379-75.182379-75.182379zM305.528392 534.244786H553.47028c23.034601 0 41.590252 18.555651 41.590253 41.590253s-18.555651 41.590252-41.590253 41.590252H305.528392c-23.034601 0-41.590252-18.555651-41.590253-41.590252s18.555651-41.590252 41.590253-41.590253zM715.032414 427.069905H307.128017c-23.034601 0-41.590252-18.555651-41.590252-41.590252s18.555651-41.590252 41.590252-41.590252h407.904397c23.034601 0 41.590252 18.555651 41.590253 41.590252s-18.555651 41.590252-41.590253 41.590252zM700.315863 535.524486c-9.277826 0-18.875576 3.519175-25.913926 10.877451-14.396626 14.396626-14.396626 37.751152 0 52.147778l286.652816 286.652816c14.396626 14.396626 37.751152 14.396626 52.147778 0s14.396626-37.751152 0-52.147778L726.22979 546.082012c-7.358275-7.03835-16.636101-10.557526-25.913927-10.557526z"  horiz-adv-x="1024" />

    
    <glyph glyph-name="sheji" unicode="&#58937;" d="M922.5 585.9c26.5 26.5 26.4 69.5-0.1 96.1L792.5 811.8c-26.6 26.6-69.6 26.6-96.1 0.1L564.1 679.7l225.8-226.3 132.6 132.5zM167.4 283.1c-13.8-13.8-24.1-30.7-30-49.4l-56-204.6c-11.2-35.6 22.4-69.2 58-58l204.6 56c18.6 5.9 35.6 16.1 49.4 29.9l50.9 50.9-225.7 226.4-51.2-51.2z m161 513.8c-29 29-76 29-105 0L100.9 674.4c-29-29-29-76 0-105l58-58 107.6 107.7c14.4 14.5 37.9 14.5 52.3 0 14.4-14.5 14.4-37.9 0-52.4L211.2 459l52.4-52.4 63.9 64.1c14.4 14.5 37.9 14.5 52.3 0 14.4-14.5 14.4-37.9 0-52.4l-63.9-64.1 52.3-52.3 107.5 107.6c14.4 14.5 37.9 14.5 52.3 0 14.4-14.5 14.4-37.9 0-52.4L420.6 249.5l52.4-52.4 0.5 0.5 63.4 63.5c14.4 14.5 37.9 14.5 52.3 0 14.4-14.5 14.4-37.9 0-52.4l-63.4-63.5c-0.1-0.1-0.3-0.3-0.5-0.4l52.3-52.3L685 200c14.4 14.5 37.9 14.5 52.3 0 14.4-14.5 14.4-37.9 0-52.4L629.9 40.1l63-63c29-29 76-29 105 0l122.5 122.5c29 29 29 76 0 105l-592 592.3z"  horiz-adv-x="1024" />

    
    <glyph glyph-name="queding" unicode="&#59100;" d="M700.056 552.39c-13.081 0-24.928-5.309-33.507-13.883L447.308 319.266 338.645 427.93c-8.579 8.574-20.426 13.883-33.507 13.883-26.164 0-47.39-21.213-47.39-47.39 0-13.08 5.307-24.928 13.883-33.507l142.17-142.171c8.579-8.577 20.426-13.883 33.507-13.883s24.928 5.306 33.506 13.883l252.748 252.748c8.579 8.579 13.883 20.425 13.883 33.507 0 26.177-21.226 47.39-47.389 47.39zM510.495 884.121C231.322 884.121 5 657.797 5 378.626c0-279.187 226.322-505.495 505.495-505.495 279.189 0 505.495 226.309 505.495 505.495 0 279.171-226.305 505.495-505.495 505.495z m0-916.21c-226.832 0-410.715 183.884-410.715 410.715s183.883 410.715 410.715 410.715c226.832 0 410.714-183.884 410.714-410.715S737.327-32.089 510.495-32.089z"  horiz-adv-x="1024" />

    
    <glyph glyph-name="xiugai" unicode="&#59006;" d="M891.264 686.336a64.768 64.768 0 0 1-8.064 33.28 86.208 86.208 0 0 1-16.128 21.312 79.36 79.36 0 0 1-39.872 21.632 71.488 71.488 0 0 1-9.6 0.96h-1.664a58.368 58.368 0 0 1-37.568-13.696 375.232 375.232 0 0 1-18.432-17.216c-7.36-7.232-13.696-13.44-19.072-18.56l100.928-103.36c3.136 2.816 6.4 6.08 10.048 9.856 3.136 3.264 6.784 7.04 11.072 11.264 4.224 4.16 9.024 9.088 14.4 14.72a53.12 53.12 0 0 1 13.952 39.808zM444.032 402.368a90.688 90.688 0 0 1-11.584-14.4c-2.688-4.288-5.12-9.088-7.296-14.336-1.728-3.392-4.096-9.6-6.976-18.624s-5.76-18.88-8.832-29.568c-3.072-10.752-5.952-21.12-8.64-31.04a200.256 200.256 0 0 1-5.12-22.848c-1.408-9.792-0.512-16.704 2.688-20.864s9.728-5.632 19.392-4.48c4.672 0.704 11.712 2.432 21.248 5.056a704.384 704.384 0 0 1 60.48 20.288 230.4 230.4 0 0 1 22.08 9.6c4.992 2.24 9.856 5.248 14.528 8.96a204.288 204.288 0 0 1 16.512 14.72L449.664 408.32l-5.632-6.016zM594.688 560L511.872 473.152c-9.984-10.56-35.136-36.224-47.488-49.088l103.04-103.68 22.912 24.192c11.52 12.224 47.552 49.024 61.952 63.68l43.008 45.696L807.68 573.44l-101.44 103.36L594.688 560zM976.128 496.064c-16.896-2.944-28.864-12.48-26.624-21.12l1.472-8c43.264-241.152-118.848-472.32-361.408-515.392-242.56-43.072-475.072 118.016-518.336 359.168C27.968 551.872 190.08 783.04 432.64 826.112c65.792 11.712 160.64-3.2 160.64-3.2 16.96-2.624 28.288 8.96 25.28 25.728L617.536 854.336a44.224 44.224 0 0 1-36.48 33.92S486.72 898.688 421.76 887.104C145.28 838.08-39.424 574.592 9.856 299.84c49.28-274.816 314.24-458.368 590.72-409.28 276.352 49.024 461.056 312.448 411.776 587.2l-1.472 8.064c-1.92 8.704-17.28 13.376-34.176 10.368l-0.64-0.128"  horiz-adv-x="1024" />

    
    <glyph glyph-name="zijin" unicode="&#58896;" d="M294.72024 700.96c104.864-0.032 209.76 0 314.624 0 105.536 0 211.104-0.032 316.64 0 21.504 0 34.08 12.448 34.208 33.856 0.096 19.936 0.096 39.84 0.032 59.744-0.064 21.184-12.832 33.888-34.272 33.888-211.104 0.032-422.176 0.032-633.248 0-20.864 0-33.568-12.64-33.696-33.376-0.096-19.264 0-38.528-0.032-57.76-0.064-24.128 11.808-36.32 35.744-36.352M1023.96824 25.792c0 26.368-11.232 37.76-37.28 37.76-91.552 0.032-183.104-0.064-274.656 0.16-5.984 0-9.536-1.632-12.864-6.688-18.272-27.84-39.808-52.96-64.384-75.52-17.6-16.128-36.672-30.304-58.112-44.864 3.328-0.384 4.288-0.576 5.216-0.576 136.672-0.032 273.344-0.064 410.016 0.032 18.784 0 31.808 13.184 32 32 0.224 19.232 0.064 38.464 0.064 57.696M738.62424 446.016c-0.64-4.512 1.664-7.648 2.944-10.944 13.184-34.528 22.016-70.144 25.152-106.976 0.672-7.712 2.752-9.824 10.464-9.792 71.008 0.288 142.016 0.16 213.024 0.16 20.704 0 33.6 12.704 33.728 33.344 0.096 19.904 0.064 39.808 0 59.712-0.064 22.016-12.512 34.432-34.56 34.464-47.136 0.032-94.24 0.032-141.376 0.032-36.48 0.032-72.928 0-109.376 0M896.44824 542.784c0.096 20.224 0.064 40.448 0 60.672-0.064 21.152-12.8 33.728-34.24 33.76-60.672 0.032-121.376 0.032-182.048 0.032H576.22424c3.36-2.592 4.416-3.424 5.472-4.16 47.328-31.36 86.976-70.432 118.208-117.824 3.328-5.088 7.2-5.728 12.416-5.696 50.4 0.128 100.8 0.064 151.232 0.128 19.808 0.064 32.832 13.088 32.896 33.088M929.85624 254.656c-51.744 0.256-103.488 0.064-155.264 0.288-5.664 0.032-7.328-2.048-7.648-7.424-0.928-16.224-4-32.16-7.232-48.064-4.928-24.416-13.056-47.776-22.24-72.256 65.408 0 129.056-0.16 192.736 0.128 16.48 0.064 29.568 13.376 29.92 30.016 0.448 22.528 0.448 45.12-0.064 67.648-0.384 16.512-13.728 29.568-30.208 29.664M701.21624 285.568c0.224 192.32-156.064 351.264-345.728 351.68C158.14424 637.664 0.25624 482.208 0.00024 287.296-0.22376 93.728 156.73624-63.68 350.27224-63.968c192.992-0.32 350.752 156.864 350.944 349.536m-352.48-285.824c-157.632 0.448-285.568 130.048-284.992 288.768 0.576 157.312 129.92 285.344 287.872 284.928 157.76-0.384 286.272-129.344 285.888-286.816-0.416-159.584-128.928-287.296-288.768-286.88M351.29624 541.6C212.38424 542.368 96.12824 428 95.61624 289.952c-0.544-142.72 112.512-257.728 253.984-258.336 140.672-0.64 255.52 113.376 256.096 254.144 0.512 140.736-113.12 255.04-254.4 255.84m120.896-260.96v-41.824h-81.664v-23.904h81.664v-41.856h-81.664v-51.776H312.80024v51.776h-83.648v41.856H312.80024v23.904h-83.648V280.64h59.328l-68.704 121.536H307.20024l43.84-95.392 43.296 95.392h87.68L415.20024 280.64h56.992z"  horiz-adv-x="1025" />

    
    <glyph glyph-name="mima" unicode="&#58908;" d="M522.436923 334.966154c-46.670769 0-84.676923-37.809231-84.676923-84.676923 0-33.673846 19.889231-62.424615 48.246154-76.012308v-92.947692c0-20.086154 16.344615-36.233846 36.233846-36.233846 20.086154 0 36.233846 16.344615 36.233846 36.233846v92.947692c28.553846 13.587692 48.246154 42.338462 48.246154 76.012308 0.196923 46.867692-37.612308 84.676923-84.283077 84.676923zM872.763077 504.123077H147.889231c-39.975385 0-72.467692-32.492308-72.467693-72.467692v-483.249231c0-39.975385 32.492308-72.467692 72.467693-72.467692h724.873846c39.975385 0 72.467692 32.492308 72.467692 72.467692V431.655385c0 40.172308-32.492308 72.467692-72.467692 72.467692z m0-507.273846c0-39.975385-8.270769-48.246154-48.246154-48.246154h-628.184615c-39.975385 0-48.246154 8.270769-48.246154 48.246154V383.409231c0 39.975385 8.270769 48.246154 48.246154 48.246154h628.184615c39.975385 0 48.246154-8.270769 48.246154-48.246154v-386.56z m-704.984615 543.704615c20.086154 0 36.430769 15.950769 37.021538 36.036923 32.689231 138.436923 156.947692 241.624615 305.427692 241.624616 115.987692 0 217.009231-63.212308 271.36-156.75077 5.710769-12.8 18.510769-21.661538 33.28-21.661538 20.086154 0 36.430769 16.344615 36.43077 36.430769 0 7.876923-2.56 15.163077-6.695385 21.070769C777.846154 812.701538 653.390769 890.88 510.227692 890.88c-187.076923 0-342.646154-128.393846-378.683077-304.64-0.196923-0.787692-0.393846-1.378462-0.393846-2.166154-0.196923-0.787692-0.393846-1.772308-0.590769-2.56h0.196923c-0.196923-1.181538-0.196923-2.363077-0.196923-3.544615 0.196923-20.676923 16.738462-37.415385 37.218462-37.415385z"  horiz-adv-x="1024" />

    
    <glyph glyph-name="baocun" unicode="&#59063;" d="M775.164121 773.171717H248.521697C176.365899 773.171717 117.656566 714.461091 117.656566 642.283313v-518.543515c0-72.177778 58.709333-130.843152 130.865131-130.843152h526.626909c72.179071 0 130.866424 58.665374 130.866424 130.843152V642.276848c0 72.184242-58.710626 130.872889-130.850909 130.894869m-464.687838-51.097858h402.71903v-289.211475H310.476283V722.073859m544.514586-598.334061c0-44.013899-35.805091-79.842263-79.820283-79.842263H248.529455c-44.013899 0-79.820283 35.828364-79.820283 79.842263V642.254869c0 44.035879 35.806384 79.81899 79.820283 79.81899v0.021979h10.930424v-340.30804H764.247919V722.103596h10.930424c44.021657 0 79.820283-35.783111 79.820283-79.820283v-518.543515h-0.007757m-267.998384 523.221333h51.024161v-170.172767h-51.024161V646.961131m0 0"  horiz-adv-x="1024" />

    
    <glyph glyph-name="wendang1" unicode="&#58913;" d="M768 748.8v-121.6c0-12.8 10.666667-23.466667 23.466667-23.466667H938.666667c21.333333 0 32 27.733333 14.933333 42.666667L806.4 768c-14.933333 12.8-38.4 2.133333-38.4-19.2zM166.4 661.333333c0 87.466667 72.533333 160 160 160h326.4c-19.2 23.466667-46.933333 38.4-78.933333 38.4h-426.666667c-55.466667 0-100.266667-44.8-100.266667-100.266666v-512c0-55.466667 44.8-100.266667 100.266667-100.266667h17.066667V661.333333zM940.8 571.733333l-145.066667 2.133334c-34.133333 0-61.866667 27.733333-61.866666 64l2.133333 121.6c0 12.8-10.666667 23.466667-23.466667 23.466666H326.4c-66.133333 0-121.6-53.333333-121.6-121.6v-618.666666c0-66.133333 53.333333-121.6 121.6-121.6h514.133333c66.133333 0 121.6 53.333333 121.6 121.6V550.4c0 10.666667-10.666667 21.333333-21.333333 21.333333z m-166.4-467.2H384c-21.333333 0-38.4 17.066667-38.4 38.4s17.066667 38.4 38.4 38.4h392.533333c21.333333 0 38.4-17.066667 38.4-38.4s-19.2-38.4-40.533333-38.4z m0 234.666667H384c-21.333333 0-38.4 17.066667-38.4 38.4s17.066667 38.4 38.4 38.4h392.533333c21.333333 0 38.4-17.066667 38.4-38.4 0-19.2-19.2-38.4-40.533333-38.4z"  horiz-adv-x="1024" />

    
    <glyph glyph-name="hetong" unicode="&#58903;" d="M512.034 837.179c250.957 0 454.402-203.445 454.402-454.401 0-250.955-203.445-454.4-454.402-454.4-250.954 0-454.398 203.445-454.398 454.4 0 250.956 203.444 454.401 454.398 454.401z m139.248-664.791h28.739c7.833 0 14.238 6.407 14.238 14.254v49.715c0 7.832-6.407 14.223-14.238 14.223H344.052c-7.832 0-14.239-6.391-14.239-14.223v-49.715c0-7.847 6.407-14.254 14.239-14.254h307.23z m61.33 123.236h-98.348c-7.095 8.046-10.437 11.093-12.73 13.649-39.735 44.291-17.336 73.636 7.997 114.06 4.472 5.769 8.585 11.798 12.091 18.172 0 0.033 0.082 0.132 0.082 0.132l-0.017 0.016c9.766 17.958 15.32 38.588 15.32 60.512 0 70.18-56.94 127.103-127.135 127.103-70.228 0-127.151-56.924-127.151-127.103 0-29.593 10.174-56.71 27.085-78.306 27.297-42.733 69.621-73.932-1.509-128.758H307.395c-11.994 0-22.907-18.123-22.907-30.135v-106.815c0-12.027 9.832-21.859 21.827-21.859 137.612 0.104 275.321 0.034 412.656 0.034 11.537 0.642 20.611 10.143 20.611 21.825V264.965c0.001 15.548-10.844 30.659-26.97 30.659zM417.639 499.951c0-22.678 4.343-43.978 17.795-60.529 48.632-63.068 47.257-94.708 13.273-143.799h132.147c-30.214 56.645-45.828 71.293 4.278 138.818 3.572 4.407 9.685 14.042 9.685 14.042 7.783 13.765 12.19 29.576 12.19 46.372 0 53.826-40.26 98.608-96.167 98.608-55.94 0.001-93.201-39.702-93.201-93.512z"  horiz-adv-x="1024" />

    
    <glyph glyph-name="diaoyan" unicode="&#58905;" d="M895.05-18.506999999999948l-31.013-33.252c-12.23-13.158-32.105-13.158-44.335 0L694.614 82.44799999999998c-30.085-18.837-65.139-29.702-102.594-29.702-110.51 0-206.061 101.093-209.284 219.192H224.561v56.13h163.473c4.423 20.093 11.683 38.737 20.857 56.155h-184.33V440.38h225.334c-0.383-0.436-0.6-1.092-0.982-1.528 36.2 35.517 83.919 57.657 136.881 57.657 112.478 0 209.993-104.56 209.993-225.225 0-41.55-10.81-80.372-29.592-113.515l124.432-133.47c12.287-13.104 16.654-29.7 4.424-42.805zM585.795 429.297c-77.86 0-140.977-67.76-140.977-151.326 0-83.564 69.342-158.012 147.203-158.012 77.968 0 141.086 67.758 141.086 151.325 0 83.565-69.396 158.013-147.312 158.013zM224.561 664.95h367.677v-56.129H224.561V664.95z m367.677-125.335c-31.34-9.528-60.66-23.56-86.595-43.106H224.56v56.155h367.677v-13.049z m52.47 10.265V721.107H172.09v-561.454h222.276c11.139-41.823 30.14-79.715 55.528-112.313H172.09c-29.048 0-52.525 25.226-52.525 56.13V777.235c0 31.04 23.477 56.157 52.525 56.157h472.618c28.993 0 52.526-25.116 52.526-56.157V549.88c-8.79 0.82-17.309 2.784-26.264 2.784-9.007 0-17.47-1.964-26.262-2.784z"  horiz-adv-x="1024" />

    
    <glyph glyph-name="design" unicode="&#58959;" d="M315.202-47.065h-0.028a21.986 21.986 0 0 0-15.614 6.48L85.908 173.067c-4.003 4.003-6.479 9.534-6.479 15.643s2.476 11.639 6.479 15.643l643.111 643.11c14.113 14.115 33.335 22.209 52.737 22.209 18.22 0 35.173-6.919 47.74-19.485l147.183-147.183c13.29-13.291 20.189-31.242 19.428-50.545-0.735-18.649-8.602-36.381-22.154-49.934l-643.111-643.11a21.985 21.985 0 0 0-15.615-6.48h-0.03zM132.835 188.708L315.202 6.34l627.47 627.472c5.657 5.654 8.935 12.897 9.23 20.388 0.269 6.832-2.043 13.055-6.508 17.52L798.215 818.904c-4.208 4.209-10.053 6.526-16.455 6.526-7.755 0-15.574-3.372-21.454-9.25L132.835 188.708zM59.585-89.006c-10.643 0-20.025 7.699-21.805 18.544-1.979 12.054 6.192 23.433 18.247 25.41l255.59 41.939c12.066 1.977 23.434-6.19 25.412-18.247 1.979-12.055-6.192-23.433-18.247-25.411l-255.59-41.938a21.642 21.642 0 0 0-3.616-0.295zM59.585-89.006c-10.643 0-20.025 7.699-21.805 18.544-1.979 12.054 6.192 23.433 18.247 25.41l255.59 41.939c12.066 1.977 23.434-6.19 25.412-18.247 1.979-12.055-6.192-23.433-18.247-25.411l-255.59-41.938a21.642 21.642 0 0 0-3.616-0.295zM59.637-89.006a22.397 22.397 0 0 0-3.75 0.317c-11.915 1.957-20.085 13.334-18.107 25.39l41.938 255.59c1.979 12.055 13.356 20.224 25.412 18.247 12.055-1.979 20.226-13.357 18.247-25.411l-41.938-255.59c-1.779-10.843-11.162-18.542-21.804-18.542zM59.637-89.006a22.397 22.397 0 0 0-3.75 0.317c-11.915 1.957-20.085 13.334-18.107 25.39l41.938 255.59c1.979 12.055 13.356 20.224 25.412 18.247 12.055-1.979 20.226-13.357 18.247-25.411l-41.938-255.59c-1.779-10.843-11.162-18.542-21.804-18.542z m810.97 597.348h-0.032a21.982 21.982 0 0 0-15.613 6.48L641.314 728.474c-8.639 8.638-8.639 22.645 0.001 31.284 8.638 8.638 22.644 8.639 31.284 0L886.25 546.106c8.639-8.639 8.639-22.645-0.001-31.284a21.982 21.982 0 0 0-15.613-6.48h-0.03zM684.128-29.182h-0.028a21.986 21.986 0 0 0-15.614 6.48c-8.64 8.639-8.64 22.644 0 31.283l117.502 117.502c8.639 8.639 22.644 8.639 31.283 0s8.639-22.644 0-31.283L699.769-22.702a21.982 21.982 0 0 0-15.613-6.48h-0.03z m-79.522 79.522h-0.031a21.982 21.982 0 0 0-15.613 6.48c-8.639 8.639-8.638 22.645 0.001 31.284l117.503 117.502c8.638 8.636 22.645 8.638 31.284-0.001s8.638-22.645 0-31.284L620.245 56.819a21.98 21.98 0 0 0-15.612-6.479h-0.031zM790.949-116.532c-18.464 0-35.824 7.19-48.879 20.246L492.965 152.819c-8.639 8.639-8.639 22.645 0 31.284l220.762 220.762c4.004 4.004 9.534 6.48 15.643 6.48s11.639-2.476 15.643-6.48l249.105-249.107c13.056-13.054 20.246-30.413 20.246-48.876s-7.19-35.822-20.247-48.877L839.825-96.287c-13.056-13.057-30.414-20.246-48.877-20.246zM539.89 168.462l233.462-233.466a24.646 24.646 0 0 1 17.526-7.287h0.069c6.641 0 12.889 2.589 17.588 7.287l154.294 154.293a24.642 24.642 0 0 1 7.287 17.527v0.069 0.063a24.64 24.64 0 0 1-7.286 17.523L729.365 357.94 539.889 168.463zM119.433 535.514h-0.028a21.986 21.986 0 0 0-15.614 6.48c-8.639 8.639-8.639 22.645 0 31.284L221.293 690.78c8.639 8.639 22.646 8.639 31.285 0s8.638-22.645 0-31.284L135.075 541.993a21.985 21.985 0 0 0-15.615-6.48h-0.03z m79.521-79.523h-0.028a21.986 21.986 0 0 0-15.614 6.48c-8.639 8.639-8.639 22.645 0 31.284l117.502 117.503c8.639 8.639 22.645 8.639 31.284 0s8.639-22.645 0-31.284L214.596 462.471a21.985 21.985 0 0 0-15.615-6.48h-0.03zM294.954 359.99a22.056 22.056 0 0 0-15.643 6.48L30.203 615.579c-13.055 13.055-20.244 30.413-20.244 48.876 0 18.464 7.189 35.822 20.244 48.877L184.497 867.625c13.054 13.054 30.413 20.244 48.876 20.244 0.001 0 0 0 0 0 18.464 0 35.822-7.189 48.878-20.244l249.106-249.108c8.639-8.639 8.639-22.645 0-31.284L310.596 366.471a22.05 22.05 0 0 0-15.643-6.48z m-61.58 483.636h-0.068a24.642 24.642 0 0 1-17.522-7.284L61.489 682.048a24.634 24.634 0 0 1-7.285-17.521V664.386a24.642 24.642 0 0 1 7.284-17.522l233.468-233.469 189.476 189.477L250.966 836.339a24.64 24.64 0 0 1-17.524 7.286h-0.071z"  horiz-adv-x="1024" />

    
    <glyph glyph-name="yonghu" unicode="&#59409;" d="M610.461538-128h-196.923076C224.492308-128 78.769231-128 78.769231-29.538462V-9.846154c0 189.046154 149.661538 338.707692 334.769231 338.707692h196.923076c185.107692 0 334.769231-153.6 334.769231-338.707692v-19.692308c0-98.461538-153.6-98.461538-334.769231-98.461538z m-110.276923 484.430769C354.461538 356.430769 236.307692 478.523077 236.307692 628.184615 236.307692 777.846154 354.461538 896 500.184615 896s263.876923-122.092308 263.876923-267.815385c0-145.723077-114.215385-271.753846-263.876923-271.753846z"  horiz-adv-x="1024" />

    
    <glyph glyph-name="tianxie" unicode="&#58891;" d="M352.52224 228.61824l212.992 60.45696-152.12544 151.20384-60.86656-211.6608zM921.4976 642.8672l-152.12544 151.1424-334.80704-332.63616 152.1664-151.20384L921.51808 642.8672zM877.1584 82.82112a95.08864 95.08864 0 0 0-95.17056-95.10912H210.88256a95.17056 95.17056 0 0 0-95.232 95.10912V653.88544a95.232 95.232 0 0 0 95.232 95.15008h380.68224l95.232 95.17056H179.0976A158.67904 158.67904 0 0 1 20.48 685.568v-634.4704A158.67904 158.67904 0 0 1 179.11808-107.52h634.61376a158.67904 158.67904 0 0 1 158.63808 158.6176V558.6944l-95.232-95.232v-380.64128zM992.256 769.78176L897.14688 864.256c-15.79008 15.68768-42.1888 14.82752-59.00288-1.80224l-45.62944-45.38368 152.12544-151.20384 45.6704 45.32224c16.83456 16.75264 17.67424 42.96704 1.9456 58.5728z"  horiz-adv-x="1024" />

    
    <glyph glyph-name="tjzhuanxiangzijin" unicode="&#58916;" d="M512-128C229.705-128 0 101.70500000000004 0 384 0 666.331 229.705 896 512 896c282.295 0 512-229.669 512-512 0-282.295-229.705-512-512-512z m0 953.38C268.617 825.38 70.62 627.384 70.62 384c0-243.383 197.997-441.38 441.38-441.38 243.383 0 441.38 197.997 441.38 441.38 0 243.383-197.997 441.38-441.38 441.38z m176.457-547.29c19.566 0 35.401-15.69 35.401-35.329 0-19.492-15.835-35.291-35.4-35.291h-141.13v-70.656c0-29.22-15.835-52.956-35.328-52.956-19.493 0-35.291 23.735-35.291 52.956V207.47000000000003H335.543c-19.566 0-35.401 15.652-35.401 35.291 0 19.493 15.835 35.328 35.4 35.328H476.71v70.62H353.097c-29.257 0-52.955 15.798-52.955 35.291 0 19.493 23.698 35.328 52.955 35.328h98.048a42.614 42.614 0 0 0-1.646 1.865L336.02 556.434c-18.798 22.419-21.944 50.725-6.986 63.269 14.921 12.544 42.277 4.535 61.074-17.884L503.59 466.58c6.144-7.315 10.605-15.251 13.312-23.077 2.742 7.826 7.204 15.762 13.312 23.076l113.48 135.241c18.835 22.419 46.19 30.428 61.112 17.884 14.957-12.544 11.812-40.85-6.986-63.269l-113.48-135.24a42.615 42.615 0 0 0-1.646-1.866h88.21c29.257 0 52.955-15.835 52.955-35.328 0-19.493-23.698-35.291-52.955-35.291H547.328v-70.62h141.13z"  horiz-adv-x="1024" />

    
    </font>
</defs>
</svg>
